<svg width="199" height="186" viewBox="0 0 199 186" fill="none" xmlns="http://www.w3.org/2000/svg">
<rect x="181.4" y="152.6" width="4.67" height="4.67" rx="2.335" fill="#9E9E9E" stroke="white"/>
<g filter="url(#filter0_d_117_6282)">
<g clip-path="url(#clip0_117_6282)">
<rect x="14.1001" y="12.25" width="170.21" height="157.62" rx="12" fill="white"/>
<rect x="17.5" y="15.6504" width="24.97" height="24.97" rx="12.48" fill="white"/>
<g clip-path="url(#clip1_117_6282)">
<g clip-path="url(#clip2_117_6282)">
<path d="M33.9761 33.5609C33.9762 33.6282 33.9629 33.6948 33.9372 33.757C33.9114 33.8191 33.8737 33.8756 33.8261 33.9232C33.7785 33.9708 33.722 34.0085 33.6599 34.0342C33.5977 34.06 33.5311 34.0732 33.4638 34.0732C32.9477 34.0726 32.4528 33.8673 32.0878 33.5024C31.7229 33.1374 31.5176 32.6425 31.517 32.1264V29.9356C31.5172 29.7999 31.5713 29.6698 31.6674 29.574C31.7634 29.4781 31.8936 29.4243 32.0293 29.4243C32.165 29.4243 32.2952 29.4781 32.3912 29.574C32.4873 29.6698 32.5414 29.7999 32.5416 29.9356V32.1264C32.5419 32.3709 32.6391 32.6053 32.812 32.7782C32.9849 32.9511 33.2193 33.0483 33.4638 33.0486C33.5311 33.0486 33.5977 33.0618 33.6599 33.0876C33.722 33.1133 33.7785 33.151 33.8261 33.1986C33.8737 33.2462 33.9114 33.3027 33.9372 33.3648C33.9629 33.427 33.9762 33.4936 33.9761 33.5609ZM36.9477 30.2614C36.8804 30.2614 36.8138 30.2746 36.7516 30.3004C36.6894 30.3261 36.6329 30.3639 36.5854 30.4114C36.5378 30.459 36.5001 30.5155 36.4743 30.5777C36.4486 30.6398 36.4353 30.7064 36.4353 30.7737C36.4353 31.0183 36.3382 31.2529 36.1652 31.4258C35.9923 31.5987 35.7577 31.6959 35.5131 31.6959C35.2686 31.6959 35.034 31.5987 34.8611 31.4258C34.6881 31.2529 34.5909 31.0183 34.5909 30.7737V26.3883C34.5909 25.1654 34.1052 23.9926 33.2404 23.1279C32.3757 22.2631 31.2029 21.7773 29.98 21.7773C28.7571 21.7773 27.5843 22.2631 26.7196 23.1279C25.8548 23.9926 25.369 25.1654 25.369 26.3883V30.7737C25.369 31.0183 25.2719 31.2529 25.0989 31.4258C24.926 31.5987 24.6914 31.6959 24.4468 31.6959C24.2023 31.6959 23.9677 31.5987 23.7948 31.4258C23.6218 31.2529 23.5247 31.0183 23.5247 30.7737C23.5248 30.7063 23.5116 30.6396 23.4859 30.5773C23.4603 30.5151 23.4225 30.4585 23.375 30.4108C23.3274 30.3631 23.2708 30.3253 23.2086 30.2995C23.1464 30.2737 23.0797 30.2604 23.0123 30.2604C22.945 30.2604 22.8783 30.2737 22.816 30.2995C22.7538 30.3253 22.6973 30.3631 22.6497 30.4108C22.6021 30.4585 22.5644 30.5151 22.5387 30.5773C22.513 30.6396 22.4999 30.7063 22.5 30.7737C22.5005 31.2897 22.7059 31.7844 23.0709 32.1491C23.436 32.5137 23.9309 32.7186 24.4468 32.7186C24.9628 32.7186 25.4577 32.5137 25.8228 32.1491C26.1878 31.7844 26.3932 31.2897 26.3937 30.7737V26.3883C26.3937 25.4372 26.7715 24.525 27.4441 23.8524C28.1167 23.1798 29.0289 22.802 29.98 22.802C30.9311 22.802 31.8433 23.1798 32.5159 23.8524C33.1885 24.525 33.5663 25.4372 33.5663 26.3883V30.7737C33.5668 31.2897 33.7722 31.7844 34.1372 32.1491C34.5023 32.5137 34.9972 32.7186 35.5131 32.7186C36.0291 32.7186 36.524 32.5137 36.8891 32.1491C37.2541 31.7844 37.4595 31.2897 37.46 30.7737C37.46 30.7064 37.4468 30.6398 37.421 30.5776C37.3953 30.5155 37.3575 30.459 37.3099 30.4114C37.2624 30.3639 37.2059 30.3261 37.1437 30.3004C37.0816 30.2746 37.0149 30.2614 36.9477 30.2614ZM29.98 29.9746C29.9127 29.9746 29.8461 29.9878 29.7839 30.0136C29.7218 30.0393 29.6653 30.0771 29.6177 30.1246C29.5701 30.1722 29.5324 30.2287 29.5066 30.2909C29.4809 30.353 29.4677 30.4196 29.4677 30.4869V33.9708C29.4679 34.1065 29.522 34.2365 29.6181 34.3324C29.7141 34.4282 29.8443 34.4821 29.98 34.4821C30.1157 34.4821 30.2459 34.4282 30.3419 34.3324C30.438 34.2365 30.492 34.1065 30.4923 33.9708V30.4869C30.4923 30.4196 30.4791 30.353 30.4533 30.2909C30.4276 30.2287 30.3898 30.1722 30.3423 30.1246C30.2947 30.0771 30.2382 30.0393 30.1761 30.0136C30.1139 29.9878 30.0473 29.9746 29.98 29.9746ZM27.9307 29.4232C27.8634 29.4232 27.7968 29.4365 27.7346 29.4622C27.6724 29.488 27.616 29.5257 27.5684 29.5733C27.5208 29.6209 27.4831 29.6773 27.4573 29.7395C27.4316 29.8017 27.4183 29.8683 27.4183 29.9356V32.1264C27.4181 32.3709 27.3208 32.6053 27.1479 32.7782C26.9751 32.9511 26.7407 33.0483 26.4962 33.0486C26.3603 33.0486 26.23 33.1025 26.1339 33.1986C26.0378 33.2947 25.9838 33.425 25.9838 33.5609C25.9838 33.6968 26.0378 33.8271 26.1339 33.9232C26.23 34.0192 26.3603 34.0732 26.4962 34.0732C27.0123 34.0726 27.5072 33.8673 27.8721 33.5024C28.2371 33.1374 28.4424 32.6425 28.443 32.1264V29.9356C28.443 29.8683 28.4298 29.8017 28.404 29.7395C28.3783 29.6773 28.3405 29.6209 28.293 29.5733C28.2454 29.5257 28.1889 29.488 28.1267 29.4622C28.0646 29.4365 27.998 29.4232 27.9307 29.4232ZM28.5455 25.671C28.4036 25.671 28.265 25.7131 28.147 25.7919C28.0291 25.8707 27.9371 25.9827 27.8828 26.1138C27.8285 26.2448 27.8143 26.389 27.842 26.5282C27.8697 26.6673 27.938 26.7951 28.0383 26.8954C28.1386 26.9957 28.2664 27.0641 28.4056 27.0917C28.5447 27.1194 28.6889 27.1052 28.82 27.0509C28.951 26.9966 29.0631 26.9047 29.1419 26.7867C29.2207 26.6688 29.2628 26.5301 29.2628 26.3882C29.2628 26.198 29.1872 26.0156 29.0527 25.8811C28.9182 25.7466 28.7357 25.671 28.5455 25.671ZM32.1318 26.3882C32.1318 26.2464 32.0897 26.1077 32.0109 25.9898C31.9321 25.8718 31.8201 25.7799 31.689 25.7256C31.558 25.6713 31.4137 25.6571 31.2746 25.6848C31.1355 25.7124 31.0077 25.7808 30.9074 25.8811C30.807 25.9814 30.7387 26.1092 30.7111 26.2483C30.6834 26.3875 30.6976 26.5317 30.7519 26.6627C30.8062 26.7938 30.8981 26.9058 31.0161 26.9846C31.134 27.0634 31.2727 27.1055 31.4145 27.1055C31.6048 27.1055 31.7872 27.0299 31.9217 26.8954C32.0562 26.7609 32.1318 26.5785 32.1318 26.3882Z" fill="#3730A3"/>
</g>
</g>
<path d="M52.7612 28.9882C52.7612 28.8552 52.7406 28.737 52.6992 28.6336C52.6608 28.5302 52.5913 28.4356 52.4909 28.3499C52.3904 28.2642 52.2486 28.1815 52.0653 28.1017C51.8851 28.019 51.6546 27.9348 51.3739 27.8491C51.0666 27.7545 50.7829 27.6496 50.5228 27.5344C50.2658 27.4162 50.0412 27.2802 49.8491 27.1266C49.657 26.97 49.5078 26.7912 49.4014 26.5902C49.295 26.3863 49.2419 26.1514 49.2419 25.8855C49.2419 25.6225 49.2965 25.3831 49.4059 25.1674C49.5181 24.9517 49.6762 24.7655 49.8801 24.6089C50.087 24.4494 50.3308 24.3267 50.6115 24.241C50.8922 24.1524 51.2025 24.1081 51.5423 24.1081C52.021 24.1081 52.4332 24.1967 52.779 24.374C53.1277 24.5513 53.3951 24.7892 53.5813 25.0876C53.7704 25.3861 53.8649 25.7156 53.8649 26.0761H52.7612C52.7612 25.8633 52.7154 25.6757 52.6238 25.5132C52.5352 25.3477 52.3993 25.2177 52.216 25.1231C52.0358 25.0285 51.8068 24.9813 51.529 24.9813C51.266 24.9813 51.0474 25.0211 50.873 25.1009C50.6987 25.1807 50.5686 25.2886 50.483 25.4245C50.3973 25.5604 50.3544 25.7141 50.3544 25.8855C50.3544 26.0066 50.3825 26.1174 50.4386 26.2179C50.4948 26.3154 50.5805 26.407 50.6957 26.4927C50.811 26.5755 50.9557 26.6538 51.1301 26.7276C51.3044 26.8015 51.5098 26.8724 51.7462 26.9404C52.1038 27.0468 52.4155 27.165 52.6815 27.295C52.9474 27.4221 53.169 27.5669 53.3463 27.7294C53.5236 27.8919 53.6566 28.0766 53.7453 28.2834C53.8339 28.4873 53.8782 28.7193 53.8782 28.9793C53.8782 29.2512 53.8236 29.4965 53.7142 29.7151C53.6049 29.9309 53.4483 30.1155 53.2444 30.2692C53.0434 30.4199 52.8011 30.5366 52.5175 30.6194C52.2367 30.6991 51.9235 30.739 51.5778 30.739C51.2675 30.739 50.9617 30.6977 50.6603 30.6149C50.3618 30.5322 50.0899 30.4066 49.8447 30.2382C49.5994 30.0668 49.4044 29.854 49.2596 29.5999C49.1148 29.3428 49.0424 29.0429 49.0424 28.7001H50.1549C50.1549 28.9099 50.1904 29.0887 50.2613 29.2364C50.3352 29.3842 50.4371 29.5053 50.5672 29.5999C50.6972 29.6915 50.8479 29.7595 51.0193 29.8038C51.1936 29.8481 51.3798 29.8703 51.5778 29.8703C51.8378 29.8703 52.055 29.8333 52.2293 29.7595C52.4066 29.6856 52.5396 29.5822 52.6283 29.4492C52.7169 29.3162 52.7612 29.1626 52.7612 28.9882ZM56.8702 30.739C56.5156 30.739 56.1949 30.6814 55.9083 30.5662C55.6246 30.448 55.3823 30.284 55.1814 30.0742C54.9834 29.8644 54.8312 29.6176 54.7248 29.3339C54.6185 29.0503 54.5653 28.7444 54.5653 28.4164V28.2391C54.5653 27.8638 54.6199 27.524 54.7293 27.2197C54.8386 26.9153 54.9908 26.6553 55.1858 26.4395C55.3808 26.2209 55.6113 26.0539 55.8773 25.9387C56.1432 25.8234 56.4313 25.7658 56.7416 25.7658C57.0844 25.7658 57.3843 25.8234 57.6414 25.9387C57.8985 26.0539 58.1112 26.2164 58.2797 26.4262C58.4511 26.6331 58.5781 26.8798 58.6609 27.1665C58.7466 27.4531 58.7894 27.7693 58.7894 28.115V28.5716H55.0839V27.8047H57.7345V27.7205C57.7286 27.5284 57.6902 27.3482 57.6192 27.1798C57.5513 27.0113 57.4464 26.8754 57.3045 26.772C57.1627 26.6685 56.9736 26.6168 56.7372 26.6168C56.5599 26.6168 56.4018 26.6553 56.2629 26.7321C56.127 26.806 56.0132 26.9138 55.9216 27.0557C55.83 27.1975 55.7591 27.3689 55.7088 27.5698C55.6616 27.7678 55.6379 27.9909 55.6379 28.2391V28.4164C55.6379 28.6262 55.666 28.8213 55.7221 29.0015C55.7812 29.1788 55.8669 29.3339 55.9792 29.4669C56.0915 29.5999 56.2274 29.7048 56.387 29.7816C56.5466 29.8555 56.7283 29.8924 56.9322 29.8924C57.1893 29.8924 57.4183 29.8407 57.6192 29.7373C57.8202 29.6339 57.9945 29.4876 58.1423 29.2985L58.7052 29.8437C58.6018 29.9944 58.4673 30.1392 58.3018 30.2781C58.1364 30.414 57.9339 30.5248 57.6946 30.6105C57.4582 30.6962 57.1834 30.739 56.8702 30.739ZM62.3265 29.6885V27.4014C62.3265 27.23 62.2955 27.0822 62.2334 26.9581C62.1714 26.834 62.0768 26.738 61.9498 26.67C61.8257 26.6021 61.669 26.5681 61.4799 26.5681C61.3056 26.5681 61.1549 26.5976 61.0278 26.6567C60.9007 26.7158 60.8018 26.7956 60.7308 26.8961C60.6599 26.9966 60.6245 27.1103 60.6245 27.2374H59.5607C59.5607 27.0483 59.6065 26.8651 59.6981 26.6878C59.7897 26.5105 59.9226 26.3524 60.097 26.2135C60.2713 26.0746 60.4797 25.9653 60.722 25.8855C60.9643 25.8057 61.2361 25.7658 61.5375 25.7658C61.8981 25.7658 62.2172 25.8264 62.495 25.9475C62.7757 26.0687 62.9958 26.2519 63.1554 26.4972C63.3179 26.7395 63.3992 27.0438 63.3992 27.4103V29.5423C63.3992 29.7609 63.414 29.9574 63.4435 30.1318C63.476 30.3032 63.5218 30.4524 63.5809 30.5795V30.6504H62.4861C62.4359 30.5351 62.396 30.3889 62.3664 30.2116C62.3398 30.0313 62.3265 29.857 62.3265 29.6885ZM62.4817 27.7338L62.4905 28.3943H61.7237C61.5257 28.3943 61.3514 28.4135 61.2007 28.4519C61.05 28.4873 60.9244 28.5405 60.8239 28.6115C60.7235 28.6824 60.6481 28.7681 60.5979 28.8685C60.5476 28.969 60.5225 29.0828 60.5225 29.2098C60.5225 29.3369 60.5521 29.4536 60.6112 29.56C60.6703 29.6634 60.756 29.7447 60.8682 29.8038C60.9835 29.8629 61.1224 29.8924 61.2849 29.8924C61.5036 29.8924 61.6942 29.8481 61.8567 29.7595C62.0222 29.6679 62.1522 29.557 62.2467 29.427C62.3413 29.2941 62.3915 29.1685 62.3974 29.0503L62.7432 29.5245C62.7077 29.6457 62.6471 29.7757 62.5615 29.9146C62.4758 30.0535 62.3635 30.1865 62.2246 30.3135C62.0887 30.4376 61.9247 30.5396 61.7326 30.6194C61.5435 30.6991 61.3248 30.739 61.0766 30.739C60.7633 30.739 60.4841 30.677 60.2388 30.5529C59.9936 30.4258 59.8015 30.2559 59.6626 30.0431C59.5237 29.8274 59.4543 29.5836 59.4543 29.3118C59.4543 29.0577 59.5016 28.8331 59.5961 28.638C59.6936 28.4401 59.8355 28.2746 60.0216 28.1416C60.2108 28.0086 60.4412 27.9082 60.7131 27.8402C60.985 27.7693 61.2952 27.7338 61.6439 27.7338H62.4817ZM65.5888 26.7675V30.6504H64.5206V25.8545H65.5401L65.5888 26.7675ZM67.056 25.8234L67.0471 26.8163C66.9821 26.8045 66.9112 26.7956 66.8344 26.7897C66.7605 26.7838 66.6866 26.7808 66.6127 26.7808C66.4295 26.7808 66.2685 26.8074 66.1296 26.8606C65.9907 26.9109 65.874 26.9847 65.7794 27.0822C65.6878 27.1768 65.6169 27.2921 65.5667 27.428C65.5164 27.5639 65.4869 27.7161 65.478 27.8845L65.2342 27.9023C65.2342 27.6008 65.2638 27.3216 65.3229 27.0645C65.382 26.8074 65.4706 26.5814 65.5888 26.3863C65.71 26.1913 65.8607 26.0391 66.0409 25.9298C66.2242 25.8205 66.4354 25.7658 66.6748 25.7658C66.7398 25.7658 66.8092 25.7717 66.8831 25.7835C66.9599 25.7954 67.0176 25.8086 67.056 25.8234ZM69.5958 29.888C69.7701 29.888 69.9267 29.854 70.0656 29.7861C70.2075 29.7151 70.3212 29.6176 70.4069 29.4935C70.4956 29.3694 70.5443 29.2261 70.5532 29.0636H71.5594C71.5535 29.3738 71.4619 29.656 71.2846 29.9102C71.1073 30.1643 70.8723 30.3667 70.5798 30.5174C70.2873 30.6652 69.9637 30.739 69.6091 30.739C69.2427 30.739 68.9235 30.677 68.6517 30.5529C68.3798 30.4258 68.1538 30.2515 67.9735 30.0298C67.7933 29.8082 67.6573 29.5526 67.5657 29.263C67.4771 28.9734 67.4327 28.6632 67.4327 28.3322V28.1771C67.4327 27.8461 67.4771 27.5358 67.5657 27.2462C67.6573 26.9537 67.7933 26.6966 67.9735 26.475C68.1538 26.2534 68.3798 26.0805 68.6517 25.9564C68.9235 25.8293 69.2412 25.7658 69.6047 25.7658C69.9888 25.7658 70.3257 25.8426 70.6153 25.9963C70.9048 26.147 71.1324 26.3583 71.2979 26.6301C71.4663 26.899 71.5535 27.2123 71.5594 27.5698H70.5532C70.5443 27.3925 70.5 27.233 70.4202 27.0911C70.3434 26.9463 70.2341 26.8311 70.0922 26.7454C69.9533 26.6597 69.7864 26.6168 69.5914 26.6168C69.3756 26.6168 69.1969 26.6612 69.055 26.7498C68.9132 26.8355 68.8024 26.9537 68.7226 27.1044C68.6428 27.2522 68.5852 27.4191 68.5497 27.6053C68.5172 27.7885 68.501 27.9791 68.501 28.1771V28.3322C68.501 28.5302 68.5172 28.7223 68.5497 28.9084C68.5822 29.0946 68.6384 29.2615 68.7182 29.4093C68.8009 29.5541 68.9132 29.6708 69.055 29.7595C69.1969 29.8452 69.3771 29.888 69.5958 29.888ZM73.4343 23.8421V30.6504H72.3705V23.8421H73.4343ZM73.2482 28.0751L72.9024 28.0707C72.9054 27.7397 72.9512 27.4339 73.0398 27.1532C73.1314 26.8724 73.2585 26.6287 73.421 26.4218C73.5865 26.212 73.7845 26.051 74.015 25.9387C74.2455 25.8234 74.5011 25.7658 74.7818 25.7658C75.0182 25.7658 75.2309 25.7983 75.4201 25.8633C75.6121 25.9283 75.7776 26.0332 75.9165 26.178C76.0554 26.3199 76.1603 26.506 76.2312 26.7365C76.3051 26.964 76.342 27.2418 76.342 27.5698V30.6504H75.2694V27.561C75.2694 27.3305 75.2354 27.1473 75.1674 27.0113C75.1024 26.8754 75.0064 26.7779 74.8793 26.7188C74.7522 26.6567 74.5971 26.6257 74.4139 26.6257C74.2218 26.6257 74.0519 26.6641 73.9042 26.7409C73.7594 26.8178 73.6382 26.9227 73.5407 27.0557C73.4432 27.1886 73.3693 27.3423 73.3191 27.5166C73.2718 27.691 73.2482 27.8771 73.2482 28.0751ZM80.0431 25.0566L78.115 30.6504H76.9493L79.3783 24.1967H80.1229L80.0431 25.0566ZM81.6566 30.6504L79.724 25.0566L79.6398 24.1967H80.3889L82.8267 30.6504H81.6566ZM81.5635 28.2569V29.1389H78.053V28.2569H81.5635ZM84.4357 26.7764V32.4943H83.3675V25.8545H84.3515L84.4357 26.7764ZM87.5606 28.2081V28.3012C87.5606 28.6499 87.5192 28.9734 87.4365 29.2719C87.3567 29.5674 87.237 29.8259 87.0775 30.0476C86.9209 30.2662 86.7273 30.4362 86.4968 30.5573C86.2663 30.6785 86.0004 30.739 85.699 30.739C85.4005 30.739 85.139 30.6844 84.9144 30.575C84.6928 30.4627 84.5052 30.3047 84.3515 30.1008C84.1978 29.8969 84.0737 29.6575 83.9792 29.3827C83.8876 29.1049 83.8226 28.8006 83.7841 28.4696V28.1106C83.8226 27.7589 83.8876 27.4398 83.9792 27.1532C84.0737 26.8665 84.1978 26.6198 84.3515 26.4129C84.5052 26.2061 84.6928 26.0465 84.9144 25.9342C85.1361 25.8219 85.3946 25.7658 85.6901 25.7658C85.9915 25.7658 86.2589 25.8249 86.4924 25.9431C86.7258 26.0583 86.9223 26.2238 87.0819 26.4395C87.2415 26.6523 87.3612 26.9094 87.4409 27.2108C87.5207 27.5092 87.5606 27.8417 87.5606 28.2081ZM86.4924 28.3012V28.2081C86.4924 27.9865 86.4717 27.7811 86.4303 27.592C86.389 27.3999 86.324 27.2315 86.2353 27.0867C86.1467 26.9419 86.0329 26.8296 85.894 26.7498C85.7581 26.6671 85.5941 26.6257 85.402 26.6257C85.2129 26.6257 85.0504 26.6582 84.9144 26.7232C84.7785 26.7853 84.6647 26.8724 84.5731 26.9847C84.4815 27.097 84.4106 27.2285 84.3604 27.3792C84.3101 27.527 84.2747 27.688 84.254 27.8624V28.7223C84.2894 28.935 84.35 29.1301 84.4357 29.3074C84.5214 29.4846 84.6426 29.6265 84.7992 29.7329C84.9588 29.8363 85.1626 29.888 85.4109 29.888C85.6029 29.888 85.7669 29.8466 85.9029 29.7639C86.0388 29.6812 86.1496 29.5674 86.2353 29.4226C86.324 29.2748 86.389 29.1049 86.4303 28.9129C86.4717 28.7208 86.4924 28.5169 86.4924 28.3012ZM89.6129 25.8545V30.6504H88.5402V25.8545H89.6129ZM88.4693 24.5956C88.4693 24.4331 88.5225 24.2987 88.6288 24.1923C88.7382 24.0829 88.8889 24.0283 89.081 24.0283C89.2701 24.0283 89.4193 24.0829 89.5286 24.1923C89.638 24.2987 89.6926 24.4331 89.6926 24.5956C89.6926 24.7552 89.638 24.8882 89.5286 24.9946C89.4193 25.1009 89.2701 25.1541 89.081 25.1541C88.8889 25.1541 88.7382 25.1009 88.6288 24.9946C88.5225 24.8882 88.4693 24.7552 88.4693 24.5956Z" fill="#616161"/>
<rect width="169.07" height="19.67" transform="translate(14.6699 44.0215)" fill="#FAFAFA"/>
<path d="M89.8331 50.4839V56.1309H88.8596V50.4839H89.8331ZM91.877 52.8303V56.1309H90.9423V51.9344H91.8227L91.877 52.8303ZM91.7102 53.8775L91.4077 53.8736C91.4103 53.5763 91.4517 53.3035 91.5318 53.0553C91.6145 52.8071 91.7283 52.5937 91.8731 52.4153C92.0205 52.2369 92.1963 52.0999 92.4006 52.0042C92.6048 51.906 92.8324 51.8568 93.0832 51.8568C93.2849 51.8568 93.4671 51.8853 93.63 51.9422C93.7955 51.9965 93.9364 52.0857 94.0528 52.2098C94.1717 52.3339 94.2622 52.4955 94.3243 52.6946C94.3863 52.8911 94.4174 53.1328 94.4174 53.4198V56.1309H93.4788V53.416C93.4788 53.2143 93.449 53.0553 93.3896 52.9389C93.3327 52.82 93.2487 52.736 93.1375 52.6868C93.0289 52.6351 92.8931 52.6093 92.7302 52.6093C92.5699 52.6093 92.4264 52.6429 92.2997 52.7101C92.173 52.7773 92.0657 52.8691 91.9778 52.9855C91.8925 53.1018 91.8266 53.2363 91.78 53.3888C91.7335 53.5414 91.7102 53.7043 91.7102 53.8775ZM96.31 52.7411V57.7443H95.3753V51.9344H96.2363L96.31 52.7411ZM99.0443 53.9939V54.0753C99.0443 54.3804 99.0081 54.6635 98.9357 54.9247C98.8659 55.1832 98.7612 55.4095 98.6216 55.6034C98.4845 55.7947 98.3152 55.9434 98.1135 56.0494C97.9118 56.1554 97.6791 56.2084 97.4154 56.2084C97.1542 56.2084 96.9254 56.1606 96.7289 56.0649C96.535 55.9667 96.3708 55.8283 96.2363 55.6499C96.1019 55.4715 95.9933 55.2621 95.9105 55.0216C95.8304 54.7786 95.7735 54.5123 95.7399 54.2227V53.9085C95.7735 53.6008 95.8304 53.3216 95.9105 53.0708C95.9933 52.82 96.1019 52.6041 96.2363 52.4231C96.3708 52.2421 96.535 52.1025 96.7289 52.0042C96.9228 51.906 97.149 51.8568 97.4076 51.8568C97.6713 51.8568 97.9053 51.9086 98.1096 52.012C98.3139 52.1128 98.4858 52.2576 98.6254 52.4464C98.7651 52.6325 98.8698 52.8575 98.9396 53.1212C99.0094 53.3824 99.0443 53.6732 99.0443 53.9939ZM98.1096 54.0753V53.9939C98.1096 53.7999 98.0915 53.6202 98.0553 53.4548C98.0191 53.2867 97.9622 53.1393 97.8847 53.0126C97.8071 52.8859 97.7075 52.7877 97.586 52.7179C97.4671 52.6455 97.3236 52.6093 97.1555 52.6093C96.99 52.6093 96.8478 52.6377 96.7289 52.6946C96.6099 52.7489 96.5104 52.8252 96.4302 52.9234C96.3501 53.0217 96.288 53.1367 96.2441 53.2686C96.2001 53.3979 96.1691 53.5388 96.151 53.6913V54.4437C96.182 54.6299 96.235 54.8006 96.31 54.9557C96.385 55.1108 96.491 55.2349 96.628 55.328C96.7677 55.4185 96.9461 55.4638 97.1633 55.4638C97.3313 55.4638 97.4748 55.4276 97.5938 55.3552C97.7127 55.2828 97.8097 55.1832 97.8847 55.0565C97.9622 54.9273 98.0191 54.7786 98.0553 54.6105C98.0915 54.4425 98.1096 54.264 98.1096 54.0753ZM102.364 55.1419V51.9344H103.303V56.1309H102.419L102.364 55.1419ZM102.496 54.2692L102.81 54.2615C102.81 54.5433 102.779 54.8031 102.717 55.041C102.655 55.2763 102.559 55.4819 102.43 55.6577C102.301 55.8309 102.135 55.9667 101.934 56.0649C101.732 56.1606 101.49 56.2084 101.208 56.2084C101.004 56.2084 100.817 56.1787 100.646 56.1192C100.475 56.0598 100.328 55.968 100.204 55.8439C100.082 55.7197 99.9881 55.5581 99.9208 55.3591C99.8536 55.16 99.82 54.9221 99.82 54.6454V51.9344H100.755V54.6532C100.755 54.8057 100.773 54.9337 100.809 55.0371C100.845 55.138 100.894 55.2194 100.956 55.2815C101.018 55.3435 101.091 55.3875 101.174 55.4134C101.256 55.4392 101.344 55.4521 101.437 55.4521C101.704 55.4521 101.913 55.4004 102.066 55.297C102.221 55.191 102.331 55.0488 102.395 54.8704C102.462 54.692 102.496 54.4916 102.496 54.2692ZM106.184 51.9344V52.617H103.819V51.9344H106.184ZM104.501 50.9066H105.436V54.9712C105.436 55.1005 105.454 55.2 105.49 55.2699C105.529 55.3371 105.582 55.3823 105.649 55.4056C105.716 55.4289 105.795 55.4405 105.886 55.4405C105.95 55.4405 106.013 55.4366 106.072 55.4289C106.131 55.4211 106.179 55.4134 106.215 55.4056L106.219 56.1192C106.142 56.1425 106.051 56.1632 105.948 56.1813C105.847 56.1994 105.731 56.2084 105.599 56.2084C105.384 56.2084 105.194 56.1709 105.029 56.096C104.863 56.0184 104.734 55.893 104.641 55.7197C104.548 55.5465 104.501 55.3164 104.501 55.0294V50.9066ZM109.26 54.9945C109.26 54.9014 109.237 54.8174 109.19 54.7424C109.144 54.6648 109.054 54.595 108.923 54.533C108.793 54.4709 108.602 54.414 108.349 54.3623C108.126 54.3132 107.922 54.255 107.736 54.1878C107.552 54.118 107.395 54.0339 107.263 53.9357C107.131 53.8374 107.029 53.7211 106.956 53.5866C106.884 53.4522 106.848 53.297 106.848 53.1212C106.848 52.9506 106.885 52.789 106.96 52.6364C107.035 52.4839 107.142 52.3494 107.282 52.2331C107.422 52.1167 107.591 52.0249 107.79 51.9577C107.992 51.8905 108.217 51.8568 108.465 51.8568C108.817 51.8568 109.118 51.9163 109.369 52.0353C109.622 52.1516 109.816 52.3106 109.95 52.5123C110.085 52.7114 110.152 52.9363 110.152 53.1871H109.217C109.217 53.076 109.189 52.9725 109.132 52.8769C109.078 52.7786 108.995 52.6998 108.884 52.6403C108.773 52.5782 108.633 52.5472 108.465 52.5472C108.305 52.5472 108.172 52.5731 108.066 52.6248C107.962 52.6739 107.885 52.7385 107.833 52.8187C107.784 52.8988 107.759 52.9868 107.759 53.0824C107.759 53.1522 107.772 53.2156 107.798 53.2725C107.826 53.3268 107.873 53.3772 107.938 53.4237C108.002 53.4677 108.09 53.509 108.201 53.5478C108.315 53.5866 108.457 53.6241 108.628 53.6603C108.948 53.7275 109.224 53.8142 109.454 53.9202C109.687 54.0236 109.865 54.158 109.989 54.3235C110.113 54.4864 110.175 54.6933 110.175 54.9441C110.175 55.1302 110.135 55.3009 110.055 55.456C109.978 55.6086 109.864 55.7417 109.714 55.8555C109.564 55.9667 109.384 56.0533 109.175 56.1153C108.968 56.1774 108.735 56.2084 108.477 56.2084C108.097 56.2084 107.775 56.1412 107.511 56.0068C107.247 55.8697 107.047 55.6952 106.91 55.4832C106.775 55.2686 106.708 55.0462 106.708 54.8161H107.612C107.622 54.9893 107.67 55.1276 107.755 55.2311C107.843 55.3319 107.952 55.4056 108.081 55.4521C108.213 55.4961 108.349 55.5181 108.488 55.5181C108.656 55.5181 108.797 55.4961 108.911 55.4521C109.025 55.4056 109.111 55.3435 109.171 55.266C109.23 55.1858 109.26 55.0953 109.26 54.9945Z" fill="#616161"/>
<path d="M27.8043 83.5441H28.549C28.5102 83.901 28.4081 84.2203 28.2426 84.5021C28.0771 84.7839 27.8431 85.0076 27.5406 85.1731C27.2381 85.336 26.8606 85.4174 26.4081 85.4174C26.0771 85.4174 25.7759 85.3554 25.5044 85.2312C25.2355 85.1071 25.0041 84.9313 24.8102 84.7038C24.6163 84.4737 24.4663 84.1983 24.3603 83.8777C24.2569 83.5545 24.2052 83.1951 24.2052 82.7995V82.2371C24.2052 81.8415 24.2569 81.4834 24.3603 81.1628C24.4663 80.8396 24.6176 80.5629 24.8141 80.3328C25.0132 80.1027 25.2523 79.9256 25.5316 79.8015C25.8108 79.6774 26.125 79.6153 26.474 79.6153C26.9007 79.6153 27.2613 79.6955 27.5561 79.8558C27.8509 80.0161 28.0797 80.2384 28.2426 80.5228C28.4081 80.8047 28.5102 81.1318 28.549 81.5041H27.8043C27.7681 81.2404 27.7009 81.0141 27.6026 80.8254C27.5044 80.634 27.3648 80.4867 27.1838 80.3832C27.0028 80.2798 26.7662 80.2281 26.474 80.2281C26.2232 80.2281 26.0022 80.2759 25.8108 80.3716C25.6221 80.4673 25.4631 80.603 25.3338 80.7788C25.2071 80.9546 25.1114 81.1654 25.0468 81.411C24.9821 81.6566 24.9498 81.9294 24.9498 82.2294V82.7995C24.9498 83.0761 24.9783 83.336 25.0351 83.579C25.0946 83.8221 25.1838 84.0354 25.3027 84.219C25.4217 84.4026 25.5729 84.5474 25.7565 84.6534C25.9401 84.7568 26.1573 84.8085 26.4081 84.8085C26.7261 84.8085 26.9795 84.7581 27.1683 84.6572C27.357 84.5564 27.4992 84.4116 27.5949 84.2229C27.6931 84.0341 27.763 83.8079 27.8043 83.5441ZM29.2704 83.2882V83.199C29.2704 82.8964 29.3143 82.6159 29.4022 82.3573C29.4901 82.0962 29.6168 81.87 29.7823 81.6786C29.9478 81.4847 30.1482 81.3347 30.3835 81.2287C30.6188 81.1201 30.8825 81.0658 31.1747 81.0658C31.4694 81.0658 31.7345 81.1201 31.9697 81.2287C32.2076 81.3347 32.4093 81.4847 32.5748 81.6786C32.7428 81.87 32.8708 82.0962 32.9587 82.3573C33.0467 82.6159 33.0906 82.8964 33.0906 83.199V83.2882C33.0906 83.5907 33.0467 83.8712 32.9587 84.1298C32.8708 84.3883 32.7428 84.6146 32.5748 84.8085C32.4093 84.9998 32.2089 85.1498 31.9736 85.2584C31.7409 85.3644 31.4772 85.4174 31.1824 85.4174C30.8877 85.4174 30.6226 85.3644 30.3874 85.2584C30.1521 85.1498 29.9504 84.9998 29.7823 84.8085C29.6168 84.6146 29.4901 84.3883 29.4022 84.1298C29.3143 83.8712 29.2704 83.5907 29.2704 83.2882ZM29.9879 83.199V83.2882C29.9879 83.4976 30.0124 83.6954 30.0616 83.8816C30.1107 84.0651 30.1844 84.228 30.2826 84.3702C30.3835 84.5124 30.5089 84.6249 30.6588 84.7077C30.8088 84.7878 30.9833 84.8279 31.1824 84.8279C31.3789 84.8279 31.5509 84.7878 31.6983 84.7077C31.8482 84.6249 31.9723 84.5124 32.0706 84.3702C32.1688 84.228 32.2425 84.0651 32.2917 83.8816C32.3434 83.6954 32.3692 83.4976 32.3692 83.2882V83.199C32.3692 82.9921 32.3434 82.7969 32.2917 82.6133C32.2425 82.4272 32.1675 82.263 32.0667 82.1208C31.9685 81.976 31.8443 81.8622 31.6944 81.7795C31.547 81.6967 31.3738 81.6553 31.1747 81.6553C30.9782 81.6553 30.8049 81.6967 30.655 81.7795C30.5076 81.8622 30.3835 81.976 30.2826 82.1208C30.1844 82.263 30.1107 82.4272 30.0616 82.6133C30.0124 82.7969 29.9879 82.9921 29.9879 83.199ZM34.7079 82.0393V85.3398H33.9904V81.1434H34.6691L34.7079 82.0393ZM34.5373 83.0826L34.2386 83.071C34.2412 82.784 34.2839 82.5189 34.3666 82.2759C34.4493 82.0303 34.5657 81.8169 34.7157 81.636C34.8656 81.455 35.044 81.3153 35.2509 81.2171C35.4603 81.1162 35.6917 81.0658 35.9451 81.0658C36.152 81.0658 36.3381 81.0943 36.5036 81.1512C36.6691 81.2055 36.81 81.2934 36.9264 81.4149C37.0453 81.5364 37.1358 81.6941 37.1979 81.8881C37.2599 82.0794 37.2909 82.3134 37.2909 82.59V85.3398H36.5695V82.5823C36.5695 82.3625 36.5372 82.1867 36.4726 82.0548C36.4079 81.9204 36.3136 81.8234 36.1895 81.7639C36.0654 81.7019 35.9128 81.6709 35.7318 81.6709C35.5534 81.6709 35.3905 81.7084 35.2431 81.7833C35.0983 81.8583 34.9729 81.9617 34.8669 82.0936C34.7635 82.2255 34.6821 82.3767 34.6226 82.5474C34.5657 82.7154 34.5373 82.8939 34.5373 83.0826ZM39.0983 82.0393V85.3398H38.3808V81.1434H39.0595L39.0983 82.0393ZM38.9276 83.0826L38.629 83.071C38.6316 82.784 38.6742 82.5189 38.757 82.2759C38.8397 82.0303 38.9561 81.8169 39.106 81.636C39.256 81.455 39.4344 81.3153 39.6413 81.2171C39.8507 81.1162 40.0821 81.0658 40.3355 81.0658C40.5423 81.0658 40.7285 81.0943 40.894 81.1512C41.0595 81.2055 41.2004 81.2934 41.3167 81.4149C41.4357 81.5364 41.5262 81.6941 41.5882 81.8881C41.6503 82.0794 41.6813 82.3134 41.6813 82.59V85.3398H40.9599V82.5823C40.9599 82.3625 40.9276 82.1867 40.863 82.0548C40.7983 81.9204 40.7039 81.8234 40.5798 81.7639C40.4557 81.7019 40.3032 81.6709 40.1222 81.6709C39.9438 81.6709 39.7809 81.7084 39.6335 81.7833C39.4887 81.8583 39.3633 81.9617 39.2573 82.0936C39.1539 82.2255 39.0724 82.3767 39.013 82.5474C38.9561 82.7154 38.9276 82.8939 38.9276 83.0826ZM44.5125 85.4174C44.2204 85.4174 43.9553 85.3683 43.7175 85.27C43.4822 85.1692 43.2792 85.0283 43.1086 84.8473C42.9405 84.6663 42.8112 84.4517 42.7207 84.2035C42.6302 83.9552 42.585 83.6838 42.585 83.389V83.2261C42.585 82.8848 42.6354 82.581 42.7362 82.3147C42.8371 82.0458 42.9741 81.8182 43.1473 81.6321C43.3206 81.4459 43.5171 81.305 43.7369 81.2093C43.9566 81.1137 44.1842 81.0658 44.4195 81.0658C44.7194 81.0658 44.978 81.1175 45.1951 81.221C45.4149 81.3244 45.5946 81.4692 45.7342 81.6553C45.8739 81.8389 45.9773 82.0561 46.0445 82.3069C46.1117 82.5551 46.1454 82.8266 46.1454 83.1214V83.4433H43.0116V82.8577H45.4279V82.8034C45.4175 82.6172 45.3787 82.4362 45.3115 82.2604C45.2469 82.0846 45.1434 81.9398 45.0012 81.826C44.859 81.7122 44.6651 81.6553 44.4195 81.6553C44.2566 81.6553 44.1066 81.6903 43.9696 81.7601C43.8325 81.8273 43.7149 81.9281 43.6166 82.0626C43.5184 82.197 43.4421 82.3612 43.3878 82.5551C43.3335 82.7491 43.3064 82.9727 43.3064 83.2261V83.389C43.3064 83.5881 43.3335 83.7755 43.3878 83.9514C43.4447 84.1246 43.5261 84.2772 43.6321 84.409C43.7407 84.5409 43.8713 84.6443 44.0239 84.7193C44.179 84.7943 44.3548 84.8318 44.5513 84.8318C44.8047 84.8318 45.0193 84.7801 45.1951 84.6766C45.371 84.5732 45.5248 84.4349 45.6567 84.2616L46.0911 84.6068C46.0006 84.7439 45.8855 84.8744 45.7459 84.9985C45.6063 85.1227 45.4343 85.2235 45.2301 85.3011C45.0284 85.3786 44.7892 85.4174 44.5125 85.4174ZM48.6625 84.8279C48.8331 84.8279 48.9908 84.793 49.1356 84.7232C49.2804 84.6534 49.3994 84.5577 49.4924 84.4362C49.5855 84.3121 49.6385 84.1711 49.6514 84.0134H50.3341C50.3211 84.2616 50.2371 84.4931 50.082 84.7077C49.9294 84.9197 49.729 85.0916 49.4808 85.2235C49.2326 85.3528 48.9598 85.4174 48.6625 85.4174C48.347 85.4174 48.0716 85.3618 47.8363 85.2506C47.6036 85.1395 47.4097 84.9869 47.2546 84.793C47.102 84.5991 46.987 84.3767 46.9094 84.1259C46.8344 83.8725 46.7969 83.6049 46.7969 83.3231V83.1602C46.7969 82.8783 46.8344 82.612 46.9094 82.3612C46.987 82.1078 47.102 81.8842 47.2546 81.6903C47.4097 81.4963 47.6036 81.3438 47.8363 81.2326C48.0716 81.1214 48.347 81.0658 48.6625 81.0658C48.9908 81.0658 49.2778 81.1331 49.5235 81.2675C49.7691 81.3994 49.9617 81.5804 50.1013 81.8105C50.2436 82.038 50.3211 82.2966 50.3341 82.5862H49.6514C49.6385 82.4129 49.5894 82.2565 49.5041 82.1169C49.4213 81.9773 49.3076 81.8661 49.1628 81.7833C49.0206 81.698 48.8538 81.6553 48.6625 81.6553C48.4427 81.6553 48.2578 81.6993 48.1078 81.7872C47.9605 81.8725 47.8428 81.9889 47.7549 82.1363C47.6696 82.2811 47.6075 82.4427 47.5687 82.6211C47.5325 82.7969 47.5144 82.9766 47.5144 83.1602V83.3231C47.5144 83.5066 47.5325 83.6876 47.5687 83.866C47.6049 84.0445 47.6657 84.2061 47.751 84.3508C47.8389 84.4956 47.9566 84.612 48.104 84.6999C48.2539 84.7852 48.4401 84.8279 48.6625 84.8279ZM52.8977 81.1434V81.6941H50.6288V81.1434H52.8977ZM51.3967 80.1234H52.1142V84.3004C52.1142 84.4426 52.1362 84.5499 52.1802 84.6223C52.2241 84.6947 52.281 84.7426 52.3508 84.7658C52.4206 84.7891 52.4956 84.8007 52.5758 84.8007C52.6352 84.8007 52.6973 84.7956 52.7619 84.7852C52.8292 84.7723 52.8796 84.762 52.9132 84.7542L52.9171 85.3398C52.8602 85.3579 52.7852 85.3747 52.6921 85.3903C52.6016 85.4084 52.4917 85.4174 52.3625 85.4174C52.1866 85.4174 52.025 85.3825 51.8777 85.3127C51.7303 85.2429 51.6126 85.1265 51.5247 84.9636C51.4394 84.7982 51.3967 84.5758 51.3967 84.2965V80.1234ZM59.2273 83.5441H59.9719C59.9331 83.901 59.831 84.2203 59.6655 84.5021C59.5 84.7839 59.266 85.0076 58.9635 85.1731C58.661 85.336 58.2835 85.4174 57.831 85.4174C57.5001 85.4174 57.1988 85.3554 56.9274 85.2312C56.6585 85.1071 56.427 84.9313 56.2331 84.7038C56.0392 84.4737 55.8892 84.1983 55.7832 83.8777C55.6798 83.5545 55.6281 83.1951 55.6281 82.7995V82.2371C55.6281 81.8415 55.6798 81.4834 55.7832 81.1628C55.8892 80.8396 56.0405 80.5629 56.237 80.3328C56.4361 80.1027 56.6753 79.9256 56.9545 79.8015C57.2338 79.6774 57.5479 79.6153 57.897 79.6153C58.3236 79.6153 58.6843 79.6955 58.979 79.8558C59.2738 80.0161 59.5026 80.2384 59.6655 80.5228C59.831 80.8047 59.9331 81.1318 59.9719 81.5041H59.2273C59.1911 81.2404 59.1238 81.0141 59.0256 80.8254C58.9273 80.634 58.7877 80.4867 58.6067 80.3832C58.4257 80.2798 58.1891 80.2281 57.897 80.2281C57.6462 80.2281 57.4251 80.2759 57.2338 80.3716C57.045 80.4673 56.886 80.603 56.7567 80.7788C56.63 80.9546 56.5343 81.1654 56.4697 81.411C56.4051 81.6566 56.3727 81.9294 56.3727 82.2294V82.7995C56.3727 83.0761 56.4012 83.336 56.4581 83.579C56.5175 83.8221 56.6067 84.0354 56.7257 84.219C56.8446 84.4026 56.9959 84.5474 57.1795 84.6534C57.363 84.7568 57.5802 84.8085 57.831 84.8085C58.1491 84.8085 58.4025 84.7581 58.5912 84.6572C58.7799 84.5564 58.9222 84.4116 59.0178 84.2229C59.1161 84.0341 59.1859 83.8079 59.2273 83.5441ZM61.6009 81.8027V85.3398H60.8833V81.1434H61.5815L61.6009 81.8027ZM62.9118 81.1201L62.9079 81.7872C62.8484 81.7743 62.7915 81.7665 62.7372 81.7639C62.6855 81.7588 62.626 81.7562 62.5588 81.7562C62.3933 81.7562 62.2473 81.782 62.1206 81.8338C61.9939 81.8855 61.8866 81.9579 61.7987 82.0509C61.7107 82.144 61.6409 82.2552 61.5892 82.3845C61.5401 82.5112 61.5078 82.6508 61.4923 82.8034L61.2906 82.9197C61.2906 82.6663 61.3151 82.4284 61.3643 82.2061C61.416 81.9837 61.4948 81.7872 61.6009 81.6166C61.7069 81.4433 61.8413 81.3089 62.0042 81.2132C62.1697 81.115 62.3662 81.0658 62.5937 81.0658C62.6454 81.0658 62.7049 81.0723 62.7721 81.0852C62.8394 81.0956 62.8859 81.1072 62.9118 81.1201ZM65.2388 85.4174C64.9466 85.4174 64.6816 85.3683 64.4437 85.27C64.2084 85.1692 64.0055 85.0283 63.8348 84.8473C63.6668 84.6663 63.5375 84.4517 63.447 84.2035C63.3565 83.9552 63.3112 83.6838 63.3112 83.389V83.2261C63.3112 82.8848 63.3617 82.581 63.4625 82.3147C63.5633 82.0458 63.7004 81.8182 63.8736 81.6321C64.0468 81.4459 64.2433 81.305 64.4631 81.2093C64.6829 81.1137 64.9104 81.0658 65.1457 81.0658C65.4457 81.0658 65.7042 81.1175 65.9214 81.221C66.1412 81.3244 66.3209 81.4692 66.4605 81.6553C66.6001 81.8389 66.7036 82.0561 66.7708 82.3069C66.838 82.5551 66.8716 82.8266 66.8716 83.1214V83.4433H63.7379V82.8577H66.1541V82.8034C66.1438 82.6172 66.105 82.4362 66.0378 82.2604C65.9731 82.0846 65.8697 81.9398 65.7275 81.826C65.5853 81.7122 65.3914 81.6553 65.1457 81.6553C64.9828 81.6553 64.8329 81.6903 64.6958 81.7601C64.5588 81.8273 64.4411 81.9281 64.3429 82.0626C64.2446 82.197 64.1684 82.3612 64.1141 82.5551C64.0598 82.7491 64.0326 82.9727 64.0326 83.2261V83.389C64.0326 83.5881 64.0598 83.7755 64.1141 83.9514C64.171 84.1246 64.2524 84.2772 64.3584 84.409C64.467 84.5409 64.5976 84.6443 64.7501 84.7193C64.9053 84.7943 65.0811 84.8318 65.2776 84.8318C65.531 84.8318 65.7456 84.7801 65.9214 84.6766C66.0972 84.5732 66.2511 84.4349 66.3829 84.2616L66.8173 84.6068C66.7268 84.7439 66.6118 84.8744 66.4721 84.9985C66.3325 85.1227 66.1606 85.2235 65.9563 85.3011C65.7546 85.3786 65.5155 85.4174 65.2388 85.4174ZM70.3544 84.5254V79.3826H71.0758V85.3398H70.4165L70.3544 84.5254ZM67.531 83.2882V83.2067C67.531 82.8861 67.5697 82.5952 67.6473 82.3341C67.7275 82.0703 67.8399 81.8441 67.9847 81.6553C68.1321 81.4666 68.3066 81.3218 68.5083 81.221C68.7126 81.1175 68.9401 81.0658 69.1909 81.0658C69.4546 81.0658 69.6848 81.1124 69.8813 81.2055C70.0804 81.2959 70.2484 81.4291 70.3855 81.6049C70.5251 81.7782 70.635 81.9876 70.7151 82.2332C70.7953 82.4789 70.8509 82.7568 70.8819 83.0671V83.4239C70.8535 83.7316 70.7979 84.0083 70.7151 84.2539C70.635 84.4995 70.5251 84.709 70.3855 84.8822C70.2484 85.0554 70.0804 85.1886 69.8813 85.2817C69.6822 85.3722 69.4495 85.4174 69.1832 85.4174C68.9375 85.4174 68.7126 85.3644 68.5083 85.2584C68.3066 85.1524 68.1321 85.0037 67.9847 84.8124C67.8399 84.621 67.7275 84.3961 67.6473 84.1375C67.5697 83.8764 67.531 83.5933 67.531 83.2882ZM68.2523 83.2067V83.2882C68.2523 83.4976 68.273 83.6941 68.3144 83.8777C68.3583 84.0613 68.4256 84.2229 68.5161 84.3625C68.6066 84.5021 68.7216 84.612 68.8612 84.6921C69.0009 84.7697 69.1676 84.8085 69.3616 84.8085C69.5994 84.8085 69.7947 84.7581 69.9472 84.6572C70.1023 84.5564 70.2265 84.4232 70.3195 84.2578C70.4126 84.0923 70.485 83.9126 70.5367 83.7187V82.784C70.5057 82.6418 70.4604 82.5047 70.401 82.3729C70.3441 82.2384 70.2691 82.1195 70.176 82.016C70.0855 81.91 69.9731 81.826 69.8386 81.7639C69.7067 81.7019 69.5503 81.6709 69.3693 81.6709C69.1728 81.6709 69.0035 81.7122 68.8612 81.795C68.7216 81.8751 68.6066 81.9863 68.5161 82.1285C68.4256 82.2681 68.3583 82.431 68.3144 82.6172C68.273 82.8008 68.2523 82.9973 68.2523 83.2067ZM73.9342 85.4174C73.642 85.4174 73.377 85.3683 73.1391 85.27C72.9039 85.1692 72.7009 85.0283 72.5302 84.8473C72.3622 84.6663 72.2329 84.4517 72.1424 84.2035C72.0519 83.9552 72.0066 83.6838 72.0066 83.389V83.2261C72.0066 82.8848 72.0571 82.581 72.1579 82.3147C72.2587 82.0458 72.3958 81.8182 72.569 81.6321C72.7422 81.4459 72.9388 81.305 73.1585 81.2093C73.3783 81.1137 73.6058 81.0658 73.8411 81.0658C74.1411 81.0658 74.3996 81.1175 74.6168 81.221C74.8366 81.3244 75.0163 81.4692 75.1559 81.6553C75.2955 81.8389 75.399 82.0561 75.4662 82.3069C75.5334 82.5551 75.567 82.8266 75.567 83.1214V83.4433H72.4333V82.8577H74.8495V82.8034C74.8392 82.6172 74.8004 82.4362 74.7332 82.2604C74.6685 82.0846 74.5651 81.9398 74.4229 81.826C74.2807 81.7122 74.0868 81.6553 73.8411 81.6553C73.6782 81.6553 73.5283 81.6903 73.3912 81.7601C73.2542 81.8273 73.1366 81.9281 73.0383 82.0626C72.94 82.197 72.8638 82.3612 72.8095 82.5551C72.7552 82.7491 72.728 82.9727 72.728 83.2261V83.389C72.728 83.5881 72.7552 83.7755 72.8095 83.9514C72.8664 84.1246 72.9478 84.2772 73.0538 84.409C73.1624 84.5409 73.293 84.6443 73.4455 84.7193C73.6007 84.7943 73.7765 84.8318 73.973 84.8318C74.2264 84.8318 74.441 84.7801 74.6168 84.6766C74.7926 84.5732 74.9465 84.4349 75.0783 84.2616L75.5127 84.6068C75.4222 84.7439 75.3072 84.8744 75.1676 84.9985C75.0279 85.1227 74.856 85.2235 74.6517 85.3011C74.45 85.3786 74.2109 85.4174 73.9342 85.4174ZM77.1223 82.0393V85.3398H76.4048V81.1434H77.0835L77.1223 82.0393ZM76.9516 83.0826L76.653 83.071C76.6556 82.784 76.6982 82.5189 76.781 82.2759C76.8637 82.0303 76.9801 81.8169 77.13 81.636C77.28 81.455 77.4584 81.3153 77.6653 81.2171C77.8747 81.1162 78.1061 81.0658 78.3595 81.0658C78.5663 81.0658 78.7525 81.0943 78.918 81.1512C79.0835 81.2055 79.2244 81.2934 79.3407 81.4149C79.4597 81.5364 79.5502 81.6941 79.6122 81.8881C79.6743 82.0794 79.7053 82.3134 79.7053 82.59V85.3398H78.9839V82.5823C78.9839 82.3625 78.9516 82.1867 78.887 82.0548C78.8223 81.9204 78.7279 81.8234 78.6038 81.7639C78.4797 81.7019 78.3272 81.6709 78.1462 81.6709C77.9678 81.6709 77.8049 81.7084 77.6575 81.7833C77.5127 81.8583 77.3873 81.9617 77.2813 82.0936C77.1779 82.2255 77.0964 82.3767 77.037 82.5474C76.9801 82.7154 76.9516 82.8939 76.9516 83.0826ZM82.5521 81.1434V81.6941H80.2832V81.1434H82.5521ZM81.0511 80.1234H81.7686V84.3004C81.7686 84.4426 81.7906 84.5499 81.8346 84.6223C81.8785 84.6947 81.9354 84.7426 82.0052 84.7658C82.075 84.7891 82.15 84.8007 82.2302 84.8007C82.2896 84.8007 82.3517 84.7956 82.4163 84.7852C82.4835 84.7723 82.534 84.762 82.5676 84.7542L82.5715 85.3398C82.5146 85.3579 82.4396 85.3747 82.3465 85.3903C82.256 85.4084 82.1461 85.4174 82.0168 85.4174C81.841 85.4174 81.6794 85.3825 81.532 85.3127C81.3847 85.2429 81.267 85.1265 81.1791 84.9636C81.0938 84.7982 81.0511 84.5758 81.0511 84.2965V80.1234ZM84.1732 81.1434V85.3398H83.4519V81.1434H84.1732ZM83.3976 80.0303C83.3976 79.9139 83.4325 79.8157 83.5023 79.7355C83.5747 79.6554 83.6807 79.6153 83.8203 79.6153C83.9573 79.6153 84.0621 79.6554 84.1345 79.7355C84.2094 79.8157 84.2469 79.9139 84.2469 80.0303C84.2469 80.1415 84.2094 80.2371 84.1345 80.3173C84.0621 80.3949 83.9573 80.4336 83.8203 80.4336C83.6807 80.4336 83.5747 80.3949 83.5023 80.3173C83.4325 80.2371 83.3976 80.1415 83.3976 80.0303ZM87.7996 84.6223V82.4621C87.7996 82.2966 87.7659 82.1531 87.6987 82.0316C87.6341 81.9074 87.5358 81.8118 87.404 81.7446C87.2721 81.6773 87.1092 81.6437 86.9153 81.6437C86.7343 81.6437 86.5753 81.6747 86.4382 81.7368C86.3038 81.7988 86.1978 81.8803 86.1202 81.9811C86.0452 82.082 86.0077 82.1906 86.0077 82.3069H85.2902C85.2902 82.157 85.329 82.0083 85.4066 81.8609C85.4841 81.7135 85.5953 81.5804 85.7401 81.4614C85.8875 81.3399 86.0633 81.2442 86.2676 81.1744C86.4744 81.102 86.7046 81.0658 86.9579 81.0658C87.263 81.0658 87.5319 81.1175 87.7647 81.221C87.9999 81.3244 88.1835 81.4808 88.3154 81.6903C88.4498 81.8971 88.5171 82.157 88.5171 82.4698V84.4245C88.5171 84.5642 88.5287 84.7128 88.552 84.8706C88.5778 85.0283 88.6153 85.164 88.6644 85.2778V85.3398H87.9159C87.8797 85.2571 87.8513 85.1472 87.8306 85.0102C87.8099 84.8706 87.7996 84.7413 87.7996 84.6223ZM87.9237 82.7956L87.9314 83.2998H87.2062C87.0019 83.2998 86.8196 83.3166 86.6593 83.3502C86.499 83.3812 86.3645 83.4291 86.2559 83.4937C86.1474 83.5584 86.0646 83.6398 86.0077 83.7381C85.9508 83.8337 85.9224 83.9462 85.9224 84.0755C85.9224 84.2073 85.9521 84.3276 86.0116 84.4362C86.0711 84.5448 86.1603 84.6314 86.2792 84.696C86.4007 84.7581 86.5494 84.7891 86.7252 84.7891C86.945 84.7891 87.1389 84.7426 87.307 84.6495C87.4751 84.5564 87.6082 84.4426 87.7065 84.3082C87.8073 84.1737 87.8616 84.0432 87.8694 83.9165L88.1758 84.2616C88.1577 84.3702 88.1085 84.4905 88.0284 84.6223C87.9482 84.7542 87.8409 84.8809 87.7065 85.0024C87.5746 85.1214 87.4169 85.2209 87.2333 85.3011C87.0523 85.3786 86.8481 85.4174 86.6205 85.4174C86.3361 85.4174 86.0866 85.3618 85.872 85.2506C85.66 85.1395 85.4945 84.9908 85.3755 84.8046C85.2592 84.6159 85.201 84.4051 85.201 84.1724C85.201 83.9475 85.245 83.7497 85.3329 83.579C85.4208 83.4058 85.5475 83.2623 85.713 83.1485C85.8784 83.0322 86.0775 82.9443 86.3102 82.8848C86.543 82.8253 86.8028 82.7956 87.0898 82.7956H87.9237ZM90.4252 79.3826V85.3398H89.7039V79.3826H90.4252Z" fill="#616161"/>
<path d="M93.5008 82.5939L94.2804 81.5235L93.1091 81.1744L93.2914 80.5927L94.4627 81.0232L94.4278 79.689H95.0173L94.9785 81.0464L96.1343 80.6159L96.3127 81.2093L95.122 81.5623L95.8861 82.6133L95.4051 82.974L94.6876 81.857L93.9856 82.9469L93.5008 82.5939Z" fill="#FF0000"/>
<rect x="23.7397" y="89.5996" width="150.92" height="21.07" rx="10.535" fill="#FAFAFA"/>
<rect x="27.1499" y="93.0098" width="110.63" height="14.25" rx="7.125" fill="#FAFAFA"/>
<path d="M159.91 99L162.745 101.835L165.581 99H159.91Z" fill="black" fill-opacity="0.54"/>
<g clip-path="url(#clip3_117_6282)">
<rect x="24.2397" y="90.2695" width="149.92" height="19.9" rx="9.95" stroke="black" stroke-opacity="0.23"/>
</g>
<rect width="169.07" height="19.67" transform="translate(14.6699 120.311)" fill="#FAFAFA"/>
<path d="M92.4049 129.441V129.752C92.4049 130.178 92.3493 130.561 92.2382 130.9C92.127 131.238 91.968 131.527 91.7611 131.764C91.5569 132.002 91.3112 132.185 91.0242 132.311C90.7372 132.435 90.4192 132.497 90.0701 132.497C89.7237 132.497 89.4069 132.435 89.1199 132.311C88.8355 132.185 88.5886 132.002 88.3791 131.764C88.1697 131.527 88.0068 131.238 87.8905 130.9C87.7767 130.561 87.7198 130.178 87.7198 129.752V129.441C87.7198 129.015 87.7767 128.633 87.8905 128.297C88.0042 127.958 88.1645 127.67 88.3714 127.432C88.5808 127.192 88.8277 127.01 89.1122 126.885C89.3992 126.759 89.7159 126.695 90.0624 126.695C90.4114 126.695 90.7295 126.759 91.0165 126.885C91.3035 127.01 91.5504 127.192 91.7572 127.432C91.9641 127.67 92.1231 127.958 92.2343 128.297C92.3481 128.633 92.4049 129.015 92.4049 129.441ZM91.4315 129.752V129.434C91.4315 129.118 91.4004 128.84 91.3384 128.6C91.2789 128.357 91.1897 128.154 91.0708 127.991C90.9544 127.825 90.8109 127.701 90.6403 127.618C90.4696 127.533 90.277 127.49 90.0624 127.49C89.8478 127.49 89.6564 127.533 89.4884 127.618C89.3203 127.701 89.1768 127.825 89.0579 127.991C88.9415 128.154 88.8523 128.357 88.7903 128.6C88.7282 128.84 88.6972 129.118 88.6972 129.434V129.752C88.6972 130.067 88.7282 130.346 88.7903 130.589C88.8523 130.832 88.9428 131.038 89.0617 131.206C89.1833 131.371 89.3281 131.497 89.4961 131.582C89.6642 131.665 89.8555 131.706 90.0701 131.706C90.2873 131.706 90.48 131.665 90.648 131.582C90.8161 131.497 90.9583 131.371 91.0746 131.206C91.191 131.038 91.2789 130.832 91.3384 130.589C91.4004 130.346 91.4315 130.067 91.4315 129.752ZM95.8102 131.431V128.223H96.7488V132.42H95.8645L95.8102 131.431ZM95.9421 130.558L96.2562 130.551C96.2562 130.832 96.2252 131.092 96.1631 131.33C96.1011 131.565 96.0054 131.771 95.8761 131.947C95.7468 132.12 95.5814 132.256 95.3797 132.354C95.178 132.45 94.9363 132.497 94.6544 132.497C94.4502 132.497 94.2627 132.468 94.0921 132.408C93.9214 132.349 93.774 132.257 93.6499 132.133C93.5284 132.009 93.434 131.847 93.3668 131.648C93.2996 131.449 93.2659 131.211 93.2659 130.934V128.223H94.2006V130.942C94.2006 131.095 94.2187 131.223 94.2549 131.326C94.2911 131.427 94.3403 131.508 94.4023 131.571C94.4644 131.633 94.5368 131.677 94.6195 131.702C94.7023 131.728 94.7902 131.741 94.8832 131.741C95.1496 131.741 95.359 131.689 95.5116 131.586C95.6667 131.48 95.7766 131.338 95.8412 131.159C95.9084 130.981 95.9421 130.781 95.9421 130.558ZM99.6304 128.223V128.906H97.2646V128.223H99.6304ZM97.9472 127.196H98.8819V131.26C98.8819 131.39 98.9 131.489 98.9362 131.559C98.975 131.626 99.028 131.671 99.0952 131.695C99.1624 131.718 99.2413 131.73 99.3318 131.73C99.3964 131.73 99.4585 131.726 99.518 131.718C99.5774 131.71 99.6253 131.702 99.6615 131.695L99.6653 132.408C99.5878 132.432 99.4973 132.452 99.3938 132.47C99.293 132.488 99.1767 132.497 99.0448 132.497C98.8302 132.497 98.6401 132.46 98.4747 132.385C98.3092 132.307 98.1799 132.182 98.0868 132.009C97.9937 131.836 97.9472 131.605 97.9472 131.318V127.196ZM101.29 129.03V134.033H100.356V128.223H101.217L101.29 129.03ZM104.025 130.283V130.364C104.025 130.669 103.988 130.953 103.916 131.214C103.846 131.472 103.742 131.699 103.602 131.892C103.465 132.084 103.296 132.232 103.094 132.338C102.892 132.444 102.659 132.497 102.396 132.497C102.135 132.497 101.906 132.45 101.709 132.354C101.515 132.256 101.351 132.117 101.217 131.939C101.082 131.761 100.974 131.551 100.891 131.311C100.811 131.068 100.754 130.801 100.72 130.512V130.198C100.754 129.89 100.811 129.611 100.891 129.36C100.974 129.109 101.082 128.893 101.217 128.712C101.351 128.531 101.515 128.392 101.709 128.293C101.903 128.195 102.129 128.146 102.388 128.146C102.652 128.146 102.886 128.198 103.09 128.301C103.294 128.402 103.466 128.547 103.606 128.735C103.745 128.922 103.85 129.147 103.92 129.41C103.99 129.671 104.025 129.962 104.025 130.283ZM103.09 130.364V130.283C103.09 130.089 103.072 129.909 103.036 129.744C102.999 129.576 102.943 129.428 102.865 129.302C102.787 129.175 102.688 129.077 102.566 129.007C102.447 128.935 102.304 128.898 102.136 128.898C101.97 128.898 101.828 128.927 101.709 128.984C101.59 129.038 101.491 129.114 101.411 129.212C101.33 129.311 101.268 129.426 101.224 129.558C101.181 129.687 101.149 129.828 101.131 129.98V130.733C101.162 130.919 101.215 131.09 101.29 131.245C101.365 131.4 101.471 131.524 101.608 131.617C101.748 131.708 101.926 131.753 102.144 131.753C102.312 131.753 102.455 131.717 102.574 131.644C102.693 131.572 102.79 131.472 102.865 131.346C102.943 131.216 102.999 131.068 103.036 130.9C103.072 130.732 103.09 130.553 103.09 130.364ZM107.345 131.431V128.223H108.283V132.42H107.399L107.345 131.431ZM107.476 130.558L107.791 130.551C107.791 130.832 107.76 131.092 107.698 131.33C107.635 131.565 107.54 131.771 107.411 131.947C107.281 132.12 107.116 132.256 106.914 132.354C106.712 132.45 106.471 132.497 106.189 132.497C105.985 132.497 105.797 132.468 105.626 132.408C105.456 132.349 105.308 132.257 105.184 132.133C105.063 132.009 104.968 131.847 104.901 131.648C104.834 131.449 104.8 131.211 104.8 130.934V128.223H105.735V130.942C105.735 131.095 105.753 131.223 105.789 131.326C105.826 131.427 105.875 131.508 105.937 131.571C105.999 131.633 106.071 131.677 106.154 131.702C106.237 131.728 106.325 131.741 106.418 131.741C106.684 131.741 106.893 131.689 107.046 131.586C107.201 131.48 107.311 131.338 107.376 131.159C107.443 130.981 107.476 130.781 107.476 130.558ZM111.165 128.223V128.906H108.799V128.223H111.165ZM109.482 127.196H110.416V131.26C110.416 131.39 110.434 131.489 110.471 131.559C110.509 131.626 110.562 131.671 110.63 131.695C110.697 131.718 110.776 131.73 110.866 131.73C110.931 131.73 110.993 131.726 111.052 131.718C111.112 131.71 111.16 131.702 111.196 131.695L111.2 132.408C111.122 132.432 111.032 132.452 110.928 132.47C110.827 132.488 110.711 132.497 110.579 132.497C110.365 132.497 110.175 132.46 110.009 132.385C109.844 132.307 109.714 132.182 109.621 132.009C109.528 131.836 109.482 131.605 109.482 131.318V127.196Z" fill="#616161"/>
<path d="M141.573 155.774C141.573 155.642 141.552 155.526 141.511 155.425C141.472 155.321 141.402 155.228 141.301 155.146C141.203 155.063 141.066 154.984 140.89 154.909C140.717 154.834 140.497 154.758 140.231 154.68C139.952 154.597 139.7 154.506 139.475 154.405C139.25 154.301 139.057 154.184 138.897 154.052C138.736 153.92 138.614 153.769 138.528 153.598C138.443 153.427 138.4 153.232 138.4 153.012C138.4 152.793 138.446 152.59 138.536 152.404C138.627 152.217 138.756 152.056 138.924 151.919C139.095 151.779 139.298 151.671 139.533 151.593C139.768 151.515 140.031 151.477 140.32 151.477C140.744 151.477 141.104 151.558 141.398 151.721C141.696 151.881 141.922 152.092 142.077 152.353C142.232 152.612 142.31 152.888 142.31 153.183H141.565C141.565 152.971 141.52 152.784 141.429 152.621C141.339 152.455 141.202 152.326 141.018 152.233C140.835 152.137 140.602 152.089 140.32 152.089C140.054 152.089 139.834 152.129 139.661 152.21C139.488 152.29 139.358 152.398 139.273 152.535C139.19 152.672 139.149 152.829 139.149 153.005C139.149 153.124 139.173 153.232 139.223 153.331C139.274 153.426 139.353 153.515 139.459 153.598C139.568 153.681 139.705 153.757 139.87 153.827C140.038 153.897 140.239 153.964 140.471 154.029C140.792 154.119 141.069 154.22 141.301 154.331C141.534 154.442 141.725 154.568 141.875 154.707C142.028 154.844 142.14 155.001 142.213 155.177C142.288 155.35 142.325 155.546 142.325 155.766C142.325 155.996 142.279 156.204 142.186 156.391C142.093 156.577 141.959 156.736 141.786 156.868C141.613 156.999 141.405 157.102 141.162 157.174C140.921 157.244 140.652 157.279 140.355 157.279C140.094 157.279 139.837 157.243 139.583 157.17C139.332 157.098 139.104 156.989 138.897 156.844C138.693 156.7 138.528 156.521 138.404 156.309C138.283 156.095 138.222 155.846 138.222 155.564H138.967C138.967 155.758 139.004 155.925 139.079 156.065C139.154 156.202 139.256 156.316 139.385 156.406C139.517 156.497 139.666 156.564 139.831 156.608C140 156.649 140.174 156.67 140.355 156.67C140.616 156.67 140.837 156.634 141.018 156.561C141.199 156.489 141.336 156.385 141.429 156.251C141.525 156.117 141.573 155.957 141.573 155.774ZM144.912 157.279C144.62 157.279 144.355 157.23 144.117 157.131C143.882 157.031 143.679 156.89 143.508 156.709C143.34 156.528 143.211 156.313 143.12 156.065C143.03 155.817 142.985 155.545 142.985 155.25V155.087C142.985 154.746 143.035 154.442 143.136 154.176C143.237 153.907 143.374 153.68 143.547 153.493C143.72 153.307 143.917 153.166 144.137 153.071C144.356 152.975 144.584 152.927 144.819 152.927C145.119 152.927 145.378 152.979 145.595 153.082C145.815 153.186 145.994 153.331 146.134 153.517C146.274 153.7 146.377 153.917 146.444 154.168C146.511 154.416 146.545 154.688 146.545 154.983V155.305H143.411V154.719H145.828V154.665C145.817 154.479 145.778 154.298 145.711 154.122C145.647 153.946 145.543 153.801 145.401 153.687C145.259 153.574 145.065 153.517 144.819 153.517C144.656 153.517 144.506 153.552 144.369 153.621C144.232 153.689 144.115 153.789 144.016 153.924C143.918 154.058 143.842 154.223 143.787 154.416C143.733 154.61 143.706 154.834 143.706 155.087V155.25C143.706 155.449 143.733 155.637 143.787 155.813C143.844 155.986 143.926 156.138 144.032 156.27C144.14 156.402 144.271 156.506 144.424 156.581C144.579 156.656 144.754 156.693 144.951 156.693C145.204 156.693 145.419 156.641 145.595 156.538C145.771 156.435 145.924 156.296 146.056 156.123L146.491 156.468C146.4 156.605 146.285 156.736 146.146 156.86C146.006 156.984 145.834 157.085 145.63 157.162C145.428 157.24 145.189 157.279 144.912 157.279ZM149.857 156.484V154.323C149.857 154.158 149.824 154.014 149.756 153.893C149.692 153.769 149.593 153.673 149.462 153.606C149.33 153.539 149.167 153.505 148.973 153.505C148.792 153.505 148.633 153.536 148.496 153.598C148.361 153.66 148.255 153.742 148.178 153.842C148.103 153.943 148.065 154.052 148.065 154.168H147.348C147.348 154.018 147.387 153.87 147.464 153.722C147.542 153.575 147.653 153.442 147.798 153.323C147.945 153.201 148.121 153.106 148.325 153.036C148.532 152.963 148.762 152.927 149.016 152.927C149.321 152.927 149.59 152.979 149.822 153.082C150.058 153.186 150.241 153.342 150.373 153.552C150.507 153.758 150.575 154.018 150.575 154.331V156.286C150.575 156.425 150.586 156.574 150.61 156.732C150.635 156.89 150.673 157.025 150.722 157.139V157.201H149.974C149.937 157.118 149.909 157.009 149.888 156.872C149.868 156.732 149.857 156.603 149.857 156.484ZM149.981 154.657L149.989 155.161H149.264C149.06 155.161 148.877 155.178 148.717 155.212C148.557 155.243 148.422 155.29 148.314 155.355C148.205 155.42 148.122 155.501 148.065 155.599C148.008 155.695 147.98 155.808 147.98 155.937C147.98 156.069 148.01 156.189 148.069 156.298C148.129 156.406 148.218 156.493 148.337 156.557C148.458 156.619 148.607 156.65 148.783 156.65C149.003 156.65 149.197 156.604 149.365 156.511C149.533 156.418 149.666 156.304 149.764 156.17C149.865 156.035 149.919 155.904 149.927 155.778L150.233 156.123C150.215 156.232 150.166 156.352 150.086 156.484C150.006 156.616 149.899 156.742 149.764 156.864C149.632 156.983 149.475 157.082 149.291 157.162C149.11 157.24 148.906 157.279 148.678 157.279C148.394 157.279 148.144 157.223 147.93 157.112C147.718 157.001 147.552 156.852 147.433 156.666C147.317 156.477 147.259 156.266 147.259 156.034C147.259 155.809 147.303 155.611 147.391 155.44C147.478 155.267 147.605 155.124 147.771 155.01C147.936 154.894 148.135 154.806 148.368 154.746C148.601 154.687 148.86 154.657 149.147 154.657H149.981ZM152.421 153.664V157.201H151.703V153.005H152.401L152.421 153.664ZM153.732 152.981L153.728 153.649C153.668 153.636 153.611 153.628 153.557 153.625C153.505 153.62 153.446 153.618 153.379 153.618C153.213 153.618 153.067 153.643 152.941 153.695C152.814 153.747 152.707 153.819 152.619 153.912C152.531 154.005 152.461 154.117 152.409 154.246C152.36 154.373 152.328 154.512 152.312 154.665L152.111 154.781C152.111 154.528 152.135 154.29 152.184 154.067C152.236 153.845 152.315 153.649 152.421 153.478C152.527 153.305 152.661 153.17 152.824 153.075C152.99 152.976 153.186 152.927 153.414 152.927C153.465 152.927 153.525 152.934 153.592 152.947C153.659 152.957 153.706 152.969 153.732 152.981ZM155.997 156.689C156.167 156.689 156.325 156.654 156.47 156.585C156.615 156.515 156.734 156.419 156.827 156.298C156.92 156.173 156.973 156.032 156.986 155.875H157.668C157.655 156.123 157.571 156.354 157.416 156.569C157.264 156.781 157.063 156.953 156.815 157.085C156.567 157.214 156.294 157.279 155.997 157.279C155.681 157.279 155.406 157.223 155.171 157.112C154.938 157.001 154.744 156.848 154.589 156.654C154.436 156.46 154.321 156.238 154.244 155.987C154.169 155.734 154.131 155.466 154.131 155.184V155.022C154.131 154.74 154.169 154.473 154.244 154.223C154.321 153.969 154.436 153.746 154.589 153.552C154.744 153.358 154.938 153.205 155.171 153.094C155.406 152.983 155.681 152.927 155.997 152.927C156.325 152.927 156.612 152.994 156.858 153.129C157.103 153.261 157.296 153.442 157.436 153.672C157.578 153.899 157.655 154.158 157.668 154.447H156.986C156.973 154.274 156.924 154.118 156.838 153.978C156.756 153.839 156.642 153.727 156.497 153.645C156.355 153.559 156.188 153.517 155.997 153.517C155.777 153.517 155.592 153.561 155.442 153.649C155.295 153.734 155.177 153.85 155.089 153.998C155.004 154.142 154.942 154.304 154.903 154.482C154.867 154.658 154.849 154.838 154.849 155.022V155.184C154.849 155.368 154.867 155.549 154.903 155.727C154.939 155.906 155 156.067 155.085 156.212C155.173 156.357 155.291 156.473 155.438 156.561C155.588 156.647 155.774 156.689 155.997 156.689ZM159.193 151.244V157.201H158.475V151.244H159.193ZM159.022 154.944L158.723 154.932C158.726 154.645 158.768 154.38 158.851 154.137C158.934 153.892 159.05 153.678 159.2 153.497C159.35 153.316 159.529 153.177 159.736 153.078C159.945 152.978 160.176 152.927 160.43 152.927C160.637 152.927 160.823 152.956 160.988 153.012C161.154 153.067 161.295 153.155 161.411 153.276C161.53 153.398 161.62 153.555 161.682 153.749C161.745 153.941 161.776 154.175 161.776 154.451V157.201H161.054V154.444C161.054 154.224 161.022 154.048 160.957 153.916C160.893 153.782 160.798 153.685 160.674 153.625C160.55 153.563 160.397 153.532 160.216 153.532C160.038 153.532 159.875 153.57 159.728 153.645C159.583 153.72 159.458 153.823 159.352 153.955C159.248 154.087 159.167 154.238 159.107 154.409C159.05 154.577 159.022 154.755 159.022 154.944ZM165.049 152.055L163.18 157.201H162.416L164.568 151.554H165.061L165.049 152.055ZM166.616 157.201L164.743 152.055L164.731 151.554H165.223L167.384 157.201H166.616ZM166.519 155.111V155.723H163.346V155.111H166.519ZM170.223 154.987H168.714V154.378H170.223C170.515 154.378 170.752 154.331 170.933 154.238C171.114 154.145 171.245 154.016 171.328 153.85C171.413 153.685 171.456 153.496 171.456 153.284C171.456 153.09 171.413 152.908 171.328 152.737C171.245 152.566 171.114 152.429 170.933 152.326C170.752 152.22 170.515 152.167 170.223 152.167H168.889V157.201H168.14V151.554H170.223C170.649 151.554 171.01 151.628 171.305 151.775C171.6 151.923 171.823 152.127 171.976 152.388C172.128 152.647 172.205 152.943 172.205 153.276C172.205 153.638 172.128 153.947 171.976 154.203C171.823 154.459 171.6 154.654 171.305 154.789C171.01 154.921 170.649 154.987 170.223 154.987ZM173.954 151.554V157.201H173.205V151.554H173.954Z" fill="#616161"/>
</g>
<rect x="14.6001" y="12.75" width="169.21" height="156.62" rx="11.5" stroke="#9E9E9E"/>
</g>
<defs>
<filter id="filter0_d_117_6282" x="0.100098" y="0.25" width="198.21" height="185.619" filterUnits="userSpaceOnUse" color-interpolation-filters="sRGB">
<feFlood flood-opacity="0" result="BackgroundImageFix"/>
<feColorMatrix in="SourceAlpha" type="matrix" values="0 0 0 0 0 0 0 0 0 0 0 0 0 0 0 0 0 0 127 0" result="hardAlpha"/>
<feOffset dy="2"/>
<feGaussianBlur stdDeviation="7"/>
<feComposite in2="hardAlpha" operator="out"/>
<feColorMatrix type="matrix" values="0 0 0 0 0.12549 0 0 0 0 0.156863 0 0 0 0 0.176471 0 0 0 0.08 0"/>
<feBlend mode="normal" in2="BackgroundImageFix" result="effect1_dropShadow_117_6282"/>
<feBlend mode="normal" in="SourceGraphic" in2="effect1_dropShadow_117_6282" result="shape"/>
</filter>
<clipPath id="clip0_117_6282">
<rect x="14.1001" y="12.25" width="170.21" height="157.62" rx="12" fill="white"/>
</clipPath>
<clipPath id="clip1_117_6282">
<rect width="24.97" height="24.97" fill="white" transform="translate(17.5 15.6504)"/>
</clipPath>
<clipPath id="clip2_117_6282">
<rect width="14.96" height="12.7047" fill="white" transform="translate(22.5 21.7773)"/>
</clipPath>
<clipPath id="clip3_117_6282">
<rect x="23.7397" y="86.7695" width="150.92" height="23.9" rx="11.95" fill="white"/>
</clipPath>
</defs>
</svg>
