<svg width="199" height="186" viewBox="0 0 199 186" fill="none" xmlns="http://www.w3.org/2000/svg">
<rect x="181.3" y="152.35" width="4.68" height="4.68" rx="2.34" fill="#9E9E9E" stroke="white"/>
<g filter="url(#filter0_d_117_6322)">
<g clip-path="url(#clip0_117_6322)">
<rect x="14" y="12" width="170.21" height="157.62" rx="12" fill="white"/>
<rect x="17.4102" y="15.4004" width="24.96" height="24.97" rx="12.48" fill="white"/>
<g clip-path="url(#clip1_117_6322)">
<g clip-path="url(#clip2_117_6322)">
<path d="M29.8948 20.4004C30.3174 20.4012 30.733 20.4369 31.137 20.5044V24.8592L34.2243 21.7798C34.5653 22.022 34.8843 22.2913 35.1792 22.5855C35.4743 22.8797 35.7451 23.1988 35.9879 23.5388L32.9004 26.6182H37.2666C37.3343 27.021 37.3702 27.434 37.3702 27.8563V27.8664C37.3702 28.2886 37.3343 28.7024 37.2666 29.1053H32.8997L35.9879 32.1839C35.7451 32.5239 35.4743 32.8429 35.1801 33.1371H35.1792C34.8843 33.4313 34.5653 33.7014 34.2252 33.9429L31.137 30.8635V35.2182C30.7337 35.2858 30.3181 35.3214 29.8956 35.3223H29.8847C29.462 35.3214 29.0481 35.2858 28.6441 35.2182V30.8635L25.5568 33.9429C24.8749 33.4592 24.2788 32.8639 23.7931 32.1839L26.8806 29.1053H22.5145C22.446 28.7016 22.4102 28.2863 22.4102 27.864V27.8424C22.4109 27.7328 22.418 27.5989 22.4283 27.4604L22.4315 27.4187C22.462 27.0289 22.5145 26.6182 22.5145 26.6182H26.8806L23.7931 23.5388C24.0352 23.1988 24.3053 22.8805 24.6002 22.5871L24.6017 22.5855C24.896 22.2913 25.2158 22.022 25.5568 21.7798L28.6441 24.8592V20.5044C29.0481 20.4369 29.4629 20.4012 29.8862 20.4004H29.8948ZM29.8941 25.9964H29.887C29.3313 25.9964 28.7991 26.0981 28.3071 26.2828C28.1227 26.7726 28.0207 27.3036 28.0199 27.8578V27.8648C28.0207 28.4191 28.1227 28.95 28.3079 29.4398C28.7991 29.6246 29.3313 29.7263 29.887 29.7263H29.8941C30.4498 29.7263 30.982 29.6246 31.4732 29.4398C31.6583 28.9492 31.7604 28.4191 31.7604 27.8648V27.8578C31.7604 27.3036 31.6583 26.7726 31.4732 26.2828C30.982 26.0981 30.4498 25.9964 29.8941 25.9964Z" fill="#FF4A00"/>
</g>
</g>
<path d="M53.7784 29.5183V30.4004H49.2971V29.5183H53.7784ZM53.6764 24.6337L49.7094 30.4004H48.9647V29.6956L52.9451 23.9467H53.6764V24.6337ZM53.2642 23.9467V24.8332H48.9913V23.9467H53.2642ZM57.3421 29.4385V27.1514C57.3421 26.98 57.3111 26.8322 57.249 26.7081C57.1869 26.584 57.0924 26.488 56.9653 26.42C56.8412 26.3521 56.6846 26.3181 56.4955 26.3181C56.3211 26.3181 56.1704 26.3476 56.0434 26.4067C55.9163 26.4658 55.8173 26.5456 55.7464 26.6461C55.6755 26.7466 55.64 26.8603 55.64 26.9874H54.5762C54.5762 26.7983 54.622 26.6151 54.7136 26.4378C54.8052 26.2605 54.9382 26.1024 55.1126 25.9635C55.2869 25.8246 55.4952 25.7153 55.7375 25.6355C55.9798 25.5557 56.2517 25.5158 56.5531 25.5158C56.9136 25.5158 57.2328 25.5764 57.5105 25.6975C57.7912 25.8187 58.0114 26.0019 58.171 26.2472C58.3335 26.4895 58.4147 26.7938 58.4147 27.1603V29.2923C58.4147 29.5109 58.4295 29.7074 58.4591 29.8818C58.4916 30.0532 58.5374 30.2024 58.5965 30.3295V30.4004H57.5017C57.4514 30.2851 57.4115 30.1389 57.382 29.9616C57.3554 29.7813 57.3421 29.607 57.3421 29.4385ZM57.4972 27.4838L57.5061 28.1443H56.7393C56.5413 28.1443 56.3669 28.1635 56.2162 28.2019C56.0655 28.2373 55.9399 28.2905 55.8395 28.3615C55.739 28.4324 55.6637 28.5181 55.6134 28.6185C55.5632 28.719 55.5381 28.8328 55.5381 28.9598C55.5381 29.0869 55.5676 29.2036 55.6267 29.31C55.6858 29.4134 55.7715 29.4947 55.8838 29.5538C55.999 29.6129 56.1379 29.6424 56.3005 29.6424C56.5191 29.6424 56.7097 29.5981 56.8722 29.5095C57.0377 29.4179 57.1677 29.307 57.2623 29.177C57.3569 29.0441 57.4071 28.9185 57.413 28.8003L57.7587 29.2745C57.7233 29.3957 57.6627 29.5257 57.577 29.6646C57.4913 29.8035 57.379 29.9365 57.2401 30.0635C57.1042 30.1876 56.9402 30.2896 56.7481 30.3694C56.559 30.4491 56.3403 30.489 56.0921 30.489C55.7789 30.489 55.4997 30.427 55.2544 30.3029C55.0091 30.1758 54.8171 30.0059 54.6782 29.7931C54.5393 29.5774 54.4698 29.3336 54.4698 29.0618C54.4698 28.8077 54.5171 28.5831 54.6117 28.388C54.7092 28.1901 54.851 28.0246 55.0372 27.8916C55.2263 27.7586 55.4568 27.6582 55.7287 27.5902C56.0005 27.5193 56.3108 27.4838 56.6595 27.4838H57.4972ZM60.6044 26.5264V32.2443H59.5362V25.6045H60.5202L60.6044 26.5264ZM63.7293 27.9581V28.0512C63.7293 28.3999 63.6879 28.7234 63.6052 29.0219C63.5254 29.3174 63.4057 29.5759 63.2461 29.7976C63.0895 30.0162 62.896 30.1862 62.6655 30.3073C62.435 30.4285 62.1691 30.489 61.8676 30.489C61.5692 30.489 61.3077 30.4344 61.0831 30.325C60.8615 30.2127 60.6738 30.0547 60.5202 29.8508C60.3665 29.6469 60.2424 29.4075 60.1478 29.1327C60.0562 28.8549 59.9912 28.5506 59.9528 28.2196V27.8606C59.9912 27.5089 60.0562 27.1898 60.1478 26.9032C60.2424 26.6165 60.3665 26.3698 60.5202 26.1629C60.6738 25.9561 60.8615 25.7965 61.0831 25.6842C61.3047 25.5719 61.5633 25.5158 61.8588 25.5158C62.1602 25.5158 62.4276 25.5749 62.6611 25.6931C62.8945 25.8083 63.091 25.9738 63.2506 26.1895C63.4101 26.4023 63.5298 26.6594 63.6096 26.9608C63.6894 27.2592 63.7293 27.5917 63.7293 27.9581ZM62.6611 28.0512V27.9581C62.6611 27.7365 62.6404 27.5311 62.599 27.342C62.5576 27.1499 62.4926 26.9815 62.404 26.8367C62.3153 26.6919 62.2016 26.5796 62.0627 26.4998C61.9267 26.4171 61.7627 26.3757 61.5707 26.3757C61.3815 26.3757 61.219 26.4082 61.0831 26.4732C60.9472 26.5353 60.8334 26.6224 60.7418 26.7347C60.6502 26.847 60.5793 26.9785 60.529 27.1292C60.4788 27.277 60.4433 27.438 60.4227 27.6124V28.4723C60.4581 28.685 60.5187 28.8801 60.6044 29.0574C60.6901 29.2346 60.8112 29.3765 60.9679 29.4829C61.1274 29.5863 61.3313 29.638 61.5795 29.638C61.7716 29.638 61.9356 29.5966 62.0715 29.5139C62.2075 29.4312 62.3183 29.3174 62.404 29.1726C62.4926 29.0248 62.5576 28.8549 62.599 28.6629C62.6404 28.4708 62.6611 28.2669 62.6611 28.0512ZM65.7815 25.6045V30.4004H64.7089V25.6045H65.7815ZM64.6379 24.3456C64.6379 24.1831 64.6911 24.0487 64.7975 23.9423C64.9068 23.8329 65.0576 23.7783 65.2496 23.7783C65.4387 23.7783 65.588 23.8329 65.6973 23.9423C65.8066 24.0487 65.8613 24.1831 65.8613 24.3456C65.8613 24.5052 65.8066 24.6382 65.6973 24.7446C65.588 24.8509 65.4387 24.9041 65.2496 24.9041C65.0576 24.9041 64.9068 24.8509 64.7975 24.7446C64.6911 24.6382 64.6379 24.5052 64.6379 24.3456ZM69.066 30.489C68.7114 30.489 68.3908 30.4314 68.1041 30.3162C67.8205 30.198 67.5782 30.034 67.3772 29.8242C67.1792 29.6144 67.027 29.3676 66.9207 29.0839C66.8143 28.8003 66.7611 28.4944 66.7611 28.1664V27.9891C66.7611 27.6138 66.8158 27.274 66.9251 26.9697C67.0344 26.6653 67.1866 26.4053 67.3816 26.1895C67.5767 25.9709 67.8072 25.8039 68.0731 25.6887C68.3391 25.5734 68.6272 25.5158 68.9374 25.5158C69.2802 25.5158 69.5802 25.5734 69.8372 25.6887C70.0943 25.8039 70.3071 25.9664 70.4755 26.1762C70.6469 26.3831 70.774 26.6298 70.8567 26.9165C70.9424 27.2031 70.9852 27.5193 70.9852 27.865V28.3216H67.2797V27.5547H69.9303V27.4705C69.9244 27.2784 69.886 27.0982 69.8151 26.9298C69.7471 26.7613 69.6422 26.6254 69.5004 26.522C69.3585 26.4185 69.1694 26.3668 68.933 26.3668C68.7557 26.3668 68.5976 26.4053 68.4587 26.4821C68.3228 26.556 68.209 26.6638 68.1174 26.8057C68.0258 26.9475 67.9549 27.1189 67.9047 27.3198C67.8574 27.5178 67.8338 27.7409 67.8338 27.9891V28.1664C67.8338 28.3762 67.8618 28.5713 67.918 28.7515C67.9771 28.9288 68.0628 29.0839 68.1751 29.2169C68.2873 29.3499 68.4233 29.4548 68.5828 29.5316C68.7424 29.6055 68.9241 29.6424 69.128 29.6424C69.3851 29.6424 69.6141 29.5907 69.8151 29.4873C70.016 29.3839 70.1904 29.2376 70.3381 29.0485L70.901 29.5937C70.7976 29.7444 70.6632 29.8892 70.4977 30.0281C70.3322 30.164 70.1298 30.2748 69.8904 30.3605C69.654 30.4462 69.3792 30.489 69.066 30.489ZM72.8912 26.5175V30.4004H71.823V25.6045H72.8425L72.8912 26.5175ZM74.3584 25.5734L74.3495 26.5663C74.2845 26.5545 74.2136 26.5456 74.1367 26.5397C74.0629 26.5338 73.989 26.5308 73.9151 26.5308C73.7319 26.5308 73.5709 26.5574 73.432 26.6106C73.2931 26.6609 73.1764 26.7347 73.0818 26.8322C72.9902 26.9268 72.9193 27.0421 72.8691 27.178C72.8188 27.3139 72.7893 27.4661 72.7804 27.6345L72.5366 27.6523C72.5366 27.3508 72.5662 27.0716 72.6253 26.8145C72.6844 26.5574 72.773 26.3314 72.8912 26.1363C73.0124 25.9413 73.1631 25.7891 73.3433 25.6798C73.5265 25.5705 73.7378 25.5158 73.9772 25.5158C74.0422 25.5158 74.1116 25.5217 74.1855 25.5335C74.2623 25.5454 74.3199 25.5586 74.3584 25.5734ZM82.5141 23.9467V30.4004H81.4016L78.5072 25.7773V30.4004H77.3946V23.9467H78.5072L81.4104 28.5786V23.9467H82.5141ZM87.8819 29.5183V30.4004H84.6417V29.5183H87.8819ZM84.952 23.9467V30.4004H83.8394V23.9467H84.952ZM91.3436 24.8066L89.4155 30.4004H88.2497L90.6787 23.9467H91.4234L91.3436 24.8066ZM92.957 30.4004L91.0245 24.8066L90.9403 23.9467H91.6893L94.1272 30.4004H92.957ZM92.864 28.0069V28.8889H89.3534V28.0069H92.864Z" fill="#616161"/>
<rect width="169.07" height="19.67" transform="translate(14.5701 43.7695)" fill="#FAFAFA"/>
<path d="M89.7386 50.2319V55.8789H88.7651V50.2319H89.7386ZM91.7825 52.5784V55.8789H90.8478V51.6825H91.7282L91.7825 52.5784ZM91.6157 53.6255L91.3132 53.6217C91.3158 53.3243 91.3572 53.0515 91.4373 52.8033C91.5201 52.5551 91.6338 52.3418 91.7786 52.1634C91.926 51.985 92.1018 51.8479 92.3061 51.7523C92.5104 51.654 92.7379 51.6049 92.9887 51.6049C93.1904 51.6049 93.3727 51.6333 93.5356 51.6902C93.701 51.7445 93.8419 51.8337 93.9583 51.9578C94.0772 52.0819 94.1677 52.2435 94.2298 52.4426C94.2918 52.6391 94.3229 52.8809 94.3229 53.1679V55.8789H93.3843V53.164C93.3843 52.9623 93.3546 52.8033 93.2951 52.687C93.2382 52.568 93.1542 52.484 93.043 52.4349C92.9344 52.3832 92.7987 52.3573 92.6358 52.3573C92.4754 52.3573 92.3319 52.3909 92.2053 52.4581C92.0786 52.5254 91.9713 52.6172 91.8833 52.7335C91.798 52.8499 91.7321 52.9843 91.6855 53.1369C91.639 53.2894 91.6157 53.4523 91.6157 53.6255ZM96.2155 52.4892V57.4923H95.2808V51.6825H96.1418L96.2155 52.4892ZM98.9498 53.7419V53.8233C98.9498 54.1284 98.9136 54.4116 98.8412 54.6727C98.7714 54.9313 98.6667 55.1575 98.5271 55.3514C98.39 55.5428 98.2207 55.6914 98.019 55.7975C97.8173 55.9035 97.5846 55.9565 97.3209 55.9565C97.0597 55.9565 96.8309 55.9086 96.6344 55.813C96.4405 55.7147 96.2763 55.5764 96.1418 55.398C96.0074 55.2196 95.8988 55.0101 95.8161 54.7697C95.7359 54.5266 95.679 54.2603 95.6454 53.9707V53.6566C95.679 53.3489 95.7359 53.0696 95.8161 52.8188C95.8988 52.568 96.0074 52.3521 96.1418 52.1711C96.2763 51.9901 96.4405 51.8505 96.6344 51.7523C96.8283 51.654 97.0546 51.6049 97.3131 51.6049C97.5769 51.6049 97.8109 51.6566 98.0151 51.76C98.2194 51.8609 98.3913 52.0057 98.531 52.1944C98.6706 52.3806 98.7753 52.6055 98.8451 52.8693C98.9149 53.1304 98.9498 53.4213 98.9498 53.7419ZM98.0151 53.8233V53.7419C98.0151 53.548 97.997 53.3683 97.9608 53.2028C97.9246 53.0347 97.8677 52.8874 97.7902 52.7607C97.7126 52.634 97.6131 52.5357 97.4915 52.4659C97.3726 52.3935 97.2291 52.3573 97.061 52.3573C96.8956 52.3573 96.7533 52.3857 96.6344 52.4426C96.5155 52.4969 96.4159 52.5732 96.3358 52.6715C96.2556 52.7697 96.1936 52.8848 96.1496 53.0166C96.1056 53.1459 96.0746 53.2868 96.0565 53.4394V54.1918C96.0875 54.378 96.1406 54.5486 96.2155 54.7037C96.2905 54.8589 96.3965 54.983 96.5336 55.0761C96.6732 55.1666 96.8516 55.2118 97.0688 55.2118C97.2369 55.2118 97.3804 55.1756 97.4993 55.1032C97.6182 55.0308 97.7152 54.9313 97.7902 54.8046C97.8677 54.6753 97.9246 54.5266 97.9608 54.3586C97.997 54.1905 98.0151 54.0121 98.0151 53.8233ZM102.27 54.8899V51.6825H103.208V55.8789H102.324L102.27 54.8899ZM102.402 54.0173L102.716 54.0095C102.716 54.2913 102.685 54.5512 102.623 54.7891C102.561 55.0244 102.465 55.2299 102.336 55.4057C102.206 55.579 102.041 55.7147 101.839 55.813C101.638 55.9086 101.396 55.9565 101.114 55.9565C100.91 55.9565 100.722 55.9267 100.552 55.8673C100.381 55.8078 100.234 55.716 100.109 55.5919C99.9879 55.4678 99.8936 55.3062 99.8263 55.1071C99.7591 54.908 99.7255 54.6701 99.7255 54.3935V51.6825H100.66V54.4012C100.66 54.5538 100.678 54.6818 100.715 54.7852C100.751 54.886 100.8 54.9675 100.862 55.0295C100.924 55.0916 100.996 55.1355 101.079 55.1614C101.162 55.1873 101.25 55.2002 101.343 55.2002C101.609 55.2002 101.819 55.1485 101.971 55.045C102.126 54.939 102.236 54.7968 102.301 54.6184C102.368 54.44 102.402 54.2396 102.402 54.0173ZM106.09 51.6825V52.3651H103.724V51.6825H106.09ZM104.407 50.6547H105.341V54.7193C105.341 54.8485 105.36 54.9481 105.396 55.0179C105.435 55.0851 105.488 55.1304 105.555 55.1536C105.622 55.1769 105.701 55.1885 105.791 55.1885C105.856 55.1885 105.918 55.1847 105.978 55.1769C106.037 55.1692 106.085 55.1614 106.121 55.1536L106.125 55.8673C106.047 55.8905 105.957 55.9112 105.853 55.9293C105.753 55.9474 105.636 55.9565 105.504 55.9565C105.29 55.9565 105.1 55.919 104.934 55.844C104.769 55.7664 104.639 55.641 104.546 55.4678C104.453 55.2946 104.407 55.0644 104.407 54.7774V50.6547ZM109.166 54.7425C109.166 54.6494 109.142 54.5654 109.096 54.4904C109.049 54.4129 108.96 54.3431 108.828 54.281C108.699 54.2189 108.508 54.1621 108.254 54.1103C108.032 54.0612 107.828 54.003 107.641 53.9358C107.458 53.866 107.3 53.782 107.168 53.6837C107.036 53.5855 106.934 53.4691 106.862 53.3347C106.789 53.2002 106.753 53.0451 106.753 52.8693C106.753 52.6986 106.791 52.537 106.866 52.3845C106.941 52.2319 107.048 52.0974 107.188 51.9811C107.327 51.8647 107.497 51.773 107.696 51.7057C107.897 51.6385 108.122 51.6049 108.37 51.6049C108.722 51.6049 109.023 51.6644 109.274 51.7833C109.528 51.8997 109.721 52.0587 109.856 52.2603C109.99 52.4594 110.058 52.6844 110.058 52.9352H109.123C109.123 52.824 109.094 52.7206 109.038 52.6249C108.983 52.5267 108.901 52.4478 108.789 52.3883C108.678 52.3263 108.539 52.2952 108.37 52.2952C108.21 52.2952 108.077 52.3211 107.971 52.3728C107.868 52.4219 107.79 52.4866 107.738 52.5667C107.689 52.6469 107.665 52.7348 107.665 52.8305C107.665 52.9003 107.678 52.9636 107.703 53.0205C107.732 53.0748 107.778 53.1252 107.843 53.1718C107.908 53.2157 107.996 53.2571 108.107 53.2959C108.221 53.3347 108.363 53.3722 108.533 53.4084C108.854 53.4756 109.129 53.5622 109.359 53.6682C109.592 53.7716 109.771 53.9061 109.895 54.0716C110.019 54.2345 110.081 54.4413 110.081 54.6921C110.081 54.8783 110.041 55.0489 109.961 55.2041C109.883 55.3566 109.769 55.4898 109.619 55.6035C109.469 55.7147 109.29 55.8013 109.08 55.8634C108.873 55.9254 108.641 55.9565 108.382 55.9565C108.002 55.9565 107.68 55.8892 107.416 55.7548C107.153 55.6178 106.952 55.4432 106.815 55.2312C106.681 55.0166 106.614 54.7942 106.614 54.5641H107.517C107.528 54.7374 107.575 54.8757 107.661 54.9791C107.749 55.08 107.857 55.1536 107.987 55.2002C108.118 55.2441 108.254 55.2661 108.394 55.2661C108.562 55.2661 108.703 55.2441 108.817 55.2002C108.93 55.1536 109.017 55.0916 109.076 55.014C109.136 54.9339 109.166 54.8434 109.166 54.7425Z" fill="#616161"/>
<path d="M27.7147 83.2941H28.4594C28.4206 83.651 28.3185 83.9703 28.153 84.2521C27.9875 84.5339 27.7535 84.7576 27.451 84.9231C27.1485 85.086 26.771 85.1674 26.3185 85.1674C25.9875 85.1674 25.6863 85.1054 25.4148 84.9812C25.1459 84.8571 24.9145 84.6813 24.7206 84.4538C24.5267 84.2237 24.3767 83.9483 24.2707 83.6277C24.1673 83.3045 24.1156 82.9451 24.1156 82.5495V81.9871C24.1156 81.5915 24.1673 81.2334 24.2707 80.9128C24.3767 80.5896 24.528 80.3129 24.7245 80.0828C24.9236 79.8527 25.1627 79.6756 25.442 79.5515C25.7212 79.4274 26.0354 79.3653 26.3844 79.3653C26.8111 79.3653 27.1717 79.4455 27.4665 79.6058C27.7613 79.7661 27.9901 79.9884 28.153 80.2728C28.3185 80.5547 28.4206 80.8818 28.4594 81.2541H27.7147C27.6785 80.9904 27.6113 80.7641 27.513 80.5754C27.4148 80.384 27.2752 80.2367 27.0942 80.1332C26.9132 80.0298 26.6766 79.9781 26.3844 79.9781C26.1336 79.9781 25.9126 80.0259 25.7212 80.1216C25.5325 80.2173 25.3735 80.353 25.2442 80.5288C25.1175 80.7046 25.0218 80.9154 24.9572 81.161C24.8925 81.4066 24.8602 81.6794 24.8602 81.9794V82.5495C24.8602 82.8261 24.8887 83.086 24.9455 83.329C25.005 83.5721 25.0942 83.7854 25.2131 83.969C25.3321 84.1526 25.4833 84.2974 25.6669 84.4034C25.8505 84.5068 26.0677 84.5585 26.3185 84.5585C26.6365 84.5585 26.8899 84.5081 27.0787 84.4072C27.2674 84.3064 27.4096 84.1616 27.5053 83.9729C27.6035 83.7841 27.6734 83.5579 27.7147 83.2941ZM29.1808 83.0382V82.949C29.1808 82.6464 29.2247 82.3659 29.3126 82.1073C29.4005 81.8462 29.5272 81.62 29.6927 81.4286C29.8582 81.2347 30.0586 81.0847 30.2939 80.9787C30.5292 80.8701 30.7929 80.8158 31.0851 80.8158C31.3798 80.8158 31.6449 80.8701 31.8801 80.9787C32.118 81.0847 32.3197 81.2347 32.4852 81.4286C32.6532 81.62 32.7812 81.8462 32.8691 82.1073C32.9571 82.3659 33.001 82.6464 33.001 82.949V83.0382C33.001 83.3407 32.9571 83.6212 32.8691 83.8798C32.7812 84.1383 32.6532 84.3646 32.4852 84.5585C32.3197 84.7498 32.1193 84.8998 31.884 85.0084C31.6513 85.1144 31.3876 85.1674 31.0928 85.1674C30.7981 85.1674 30.533 85.1144 30.2978 85.0084C30.0625 84.8998 29.8608 84.7498 29.6927 84.5585C29.5272 84.3646 29.4005 84.1383 29.3126 83.8798C29.2247 83.6212 29.1808 83.3407 29.1808 83.0382ZM29.8983 82.949V83.0382C29.8983 83.2476 29.9228 83.4454 29.972 83.6316C30.0211 83.8151 30.0948 83.978 30.193 84.1202C30.2939 84.2624 30.4193 84.3749 30.5692 84.4577C30.7192 84.5378 30.8937 84.5779 31.0928 84.5779C31.2893 84.5779 31.4613 84.5378 31.6087 84.4577C31.7586 84.3749 31.8827 84.2624 31.981 84.1202C32.0792 83.978 32.1529 83.8151 32.2021 83.6316C32.2538 83.4454 32.2796 83.2476 32.2796 83.0382V82.949C32.2796 82.7421 32.2538 82.5469 32.2021 82.3633C32.1529 82.1772 32.0779 82.013 31.9771 81.8708C31.8789 81.726 31.7547 81.6122 31.6048 81.5295C31.4574 81.4467 31.2842 81.4053 31.0851 81.4053C30.8886 81.4053 30.7153 81.4467 30.5654 81.5295C30.418 81.6122 30.2939 81.726 30.193 81.8708C30.0948 82.013 30.0211 82.1772 29.972 82.3633C29.9228 82.5469 29.8983 82.7421 29.8983 82.949ZM34.6183 81.7893V85.0898H33.9008V80.8934H34.5795L34.6183 81.7893ZM34.4477 82.8326L34.149 82.821C34.1516 82.534 34.1943 82.2689 34.277 82.0259C34.3597 81.7803 34.4761 81.5669 34.6261 81.386C34.776 81.205 34.9544 81.0653 35.1613 80.9671C35.3707 80.8662 35.6021 80.8158 35.8555 80.8158C36.0624 80.8158 36.2485 80.8443 36.414 80.9012C36.5795 80.9555 36.7204 81.0434 36.8368 81.1649C36.9557 81.2864 37.0462 81.4441 37.1083 81.6381C37.1703 81.8294 37.2013 82.0634 37.2013 82.34V85.0898H36.4799V82.3323C36.4799 82.1125 36.4476 81.9367 36.383 81.8048C36.3183 81.6704 36.224 81.5734 36.0999 81.5139C35.9758 81.4519 35.8232 81.4209 35.6422 81.4209C35.4638 81.4209 35.3009 81.4584 35.1535 81.5333C35.0087 81.6083 34.8833 81.7117 34.7773 81.8436C34.6739 81.9755 34.5925 82.1267 34.533 82.2974C34.4761 82.4654 34.4477 82.6439 34.4477 82.8326ZM39.0087 81.7893V85.0898H38.2912V80.8934H38.9699L39.0087 81.7893ZM38.838 82.8326L38.5394 82.821C38.542 82.534 38.5846 82.2689 38.6674 82.0259C38.7501 81.7803 38.8665 81.5669 39.0164 81.386C39.1664 81.205 39.3448 81.0653 39.5517 80.9671C39.7611 80.8662 39.9925 80.8158 40.2459 80.8158C40.4527 80.8158 40.6389 80.8443 40.8044 80.9012C40.9699 80.9555 41.1108 81.0434 41.2271 81.1649C41.3461 81.2864 41.4366 81.4441 41.4986 81.6381C41.5607 81.8294 41.5917 82.0634 41.5917 82.34V85.0898H40.8703V82.3323C40.8703 82.1125 40.838 81.9367 40.7734 81.8048C40.7087 81.6704 40.6143 81.5734 40.4902 81.5139C40.3661 81.4519 40.2136 81.4209 40.0326 81.4209C39.8542 81.4209 39.6913 81.4584 39.5439 81.5333C39.3991 81.6083 39.2737 81.7117 39.1677 81.8436C39.0643 81.9755 38.9828 82.1267 38.9234 82.2974C38.8665 82.4654 38.838 82.6439 38.838 82.8326ZM44.4229 85.1674C44.1308 85.1674 43.8657 85.1183 43.6279 85.02C43.3926 84.9192 43.1896 84.7783 43.019 84.5973C42.8509 84.4163 42.7216 84.2017 42.6311 83.9535C42.5406 83.7052 42.4954 83.4338 42.4954 83.139V82.9761C42.4954 82.6348 42.5458 82.331 42.6466 82.0647C42.7475 81.7958 42.8845 81.5682 43.0577 81.3821C43.231 81.1959 43.4275 81.055 43.6473 80.9593C43.867 80.8637 44.0946 80.8158 44.3299 80.8158C44.6298 80.8158 44.8884 80.8675 45.1055 80.971C45.3253 81.0744 45.505 81.2192 45.6446 81.4053C45.7843 81.5889 45.8877 81.8061 45.9549 82.0569C46.0221 82.3051 46.0558 82.5766 46.0558 82.8714V83.1933H42.922V82.6077H45.3383V82.5534C45.3279 82.3672 45.2891 82.1862 45.2219 82.0104C45.1573 81.8346 45.0538 81.6898 44.9116 81.576C44.7694 81.4622 44.5755 81.4053 44.3299 81.4053C44.167 81.4053 44.017 81.4403 43.88 81.5101C43.7429 81.5773 43.6253 81.6781 43.527 81.8126C43.4288 81.947 43.3525 82.1112 43.2982 82.3051C43.2439 82.4991 43.2168 82.7227 43.2168 82.9761V83.139C43.2168 83.3381 43.2439 83.5255 43.2982 83.7014C43.3551 83.8746 43.4365 84.0272 43.5425 84.159C43.6511 84.2909 43.7817 84.3943 43.9343 84.4693C44.0894 84.5443 44.2652 84.5818 44.4617 84.5818C44.7151 84.5818 44.9297 84.5301 45.1055 84.4266C45.2814 84.3232 45.4352 84.1849 45.5671 84.0116L46.0015 84.3568C45.911 84.4939 45.7959 84.6244 45.6563 84.7485C45.5167 84.8727 45.3447 84.9735 45.1405 85.0511C44.9388 85.1286 44.6996 85.1674 44.4229 85.1674ZM48.5729 84.5779C48.7435 84.5779 48.9012 84.543 49.046 84.4732C49.1908 84.4034 49.3098 84.3077 49.4028 84.1862C49.4959 84.0621 49.5489 83.9211 49.5618 83.7634H50.2445C50.2315 84.0116 50.1475 84.2431 49.9924 84.4577C49.8398 84.6697 49.6394 84.8416 49.3912 84.9735C49.143 85.1028 48.8702 85.1674 48.5729 85.1674C48.2574 85.1674 47.982 85.1118 47.7468 85.0006C47.514 84.8895 47.3201 84.7369 47.165 84.543C47.0124 84.3491 46.8974 84.1267 46.8198 83.8759C46.7448 83.6225 46.7073 83.3549 46.7073 83.0731V82.9102C46.7073 82.6283 46.7448 82.362 46.8198 82.1112C46.8974 81.8578 47.0124 81.6342 47.165 81.4403C47.3201 81.2463 47.514 81.0938 47.7468 80.9826C47.982 80.8714 48.2574 80.8158 48.5729 80.8158C48.9012 80.8158 49.1882 80.8831 49.4339 81.0175C49.6795 81.1494 49.8721 81.3304 50.0117 81.5605C50.154 81.788 50.2315 82.0466 50.2445 82.3362H49.5618C49.5489 82.1629 49.4998 82.0065 49.4145 81.8669C49.3317 81.7273 49.218 81.6161 49.0732 81.5333C48.931 81.448 48.7642 81.4053 48.5729 81.4053C48.3531 81.4053 48.1682 81.4493 48.0182 81.5372C47.8709 81.6225 47.7532 81.7389 47.6653 81.8863C47.58 82.0311 47.5179 82.1927 47.4791 82.3711C47.4429 82.5469 47.4248 82.7266 47.4248 82.9102V83.0731C47.4248 83.2566 47.4429 83.4376 47.4791 83.616C47.5153 83.7945 47.5761 83.9561 47.6614 84.1008C47.7493 84.2456 47.867 84.362 48.0144 84.4499C48.1643 84.5352 48.3505 84.5779 48.5729 84.5779ZM52.8081 80.8934V81.4441H50.5392V80.8934H52.8081ZM51.3071 79.8734H52.0246V84.0504C52.0246 84.1926 52.0466 84.2999 52.0906 84.3723C52.1345 84.4447 52.1914 84.4926 52.2612 84.5158C52.331 84.5391 52.406 84.5507 52.4862 84.5507C52.5456 84.5507 52.6077 84.5456 52.6723 84.5352C52.7396 84.5223 52.79 84.512 52.8236 84.5042L52.8275 85.0898C52.7706 85.1079 52.6956 85.1247 52.6025 85.1403C52.512 85.1584 52.4021 85.1674 52.2729 85.1674C52.097 85.1674 51.9354 85.1325 51.7881 85.0627C51.6407 84.9929 51.523 84.8765 51.4351 84.7136C51.3498 84.5482 51.3071 84.3258 51.3071 84.0465V79.8734ZM59.1377 83.2941H59.8823C59.8435 83.651 59.7414 83.9703 59.5759 84.2521C59.4104 84.5339 59.1764 84.7576 58.8739 84.9231C58.5714 85.086 58.1939 85.1674 57.7414 85.1674C57.4105 85.1674 57.1092 85.1054 56.8378 84.9812C56.5689 84.8571 56.3374 84.6813 56.1435 84.4538C55.9496 84.2237 55.7996 83.9483 55.6936 83.6277C55.5902 83.3045 55.5385 82.9451 55.5385 82.5495V81.9871C55.5385 81.5915 55.5902 81.2334 55.6936 80.9128C55.7996 80.5896 55.9509 80.3129 56.1474 80.0828C56.3465 79.8527 56.5857 79.6756 56.8649 79.5515C57.1442 79.4274 57.4583 79.3653 57.8074 79.3653C58.234 79.3653 58.5947 79.4455 58.8894 79.6058C59.1842 79.7661 59.413 79.9884 59.5759 80.2728C59.7414 80.5547 59.8435 80.8818 59.8823 81.2541H59.1377C59.1015 80.9904 59.0342 80.7641 58.936 80.5754C58.8377 80.384 58.6981 80.2367 58.5171 80.1332C58.3361 80.0298 58.0995 79.9781 57.8074 79.9781C57.5566 79.9781 57.3355 80.0259 57.1442 80.1216C56.9554 80.2173 56.7964 80.353 56.6671 80.5288C56.5404 80.7046 56.4447 80.9154 56.3801 81.161C56.3155 81.4066 56.2831 81.6794 56.2831 81.9794V82.5495C56.2831 82.8261 56.3116 83.086 56.3685 83.329C56.4279 83.5721 56.5171 83.7854 56.6361 83.969C56.755 84.1526 56.9063 84.2974 57.0899 84.4034C57.2734 84.5068 57.4906 84.5585 57.7414 84.5585C58.0595 84.5585 58.3129 84.5081 58.5016 84.4072C58.6904 84.3064 58.8326 84.1616 58.9282 83.9729C59.0265 83.7841 59.0963 83.5579 59.1377 83.2941ZM61.5113 81.5527V85.0898H60.7937V80.8934H61.4919L61.5113 81.5527ZM62.8222 80.8701L62.8183 81.5372C62.7588 81.5243 62.7019 81.5165 62.6476 81.5139C62.5959 81.5088 62.5364 81.5062 62.4692 81.5062C62.3037 81.5062 62.1577 81.532 62.031 81.5838C61.9043 81.6355 61.797 81.7079 61.7091 81.8009C61.6211 81.894 61.5513 82.0052 61.4996 82.1345C61.4505 82.2612 61.4182 82.4008 61.4027 82.5534L61.201 82.6697C61.201 82.4163 61.2255 82.1784 61.2747 81.9561C61.3264 81.7337 61.4052 81.5372 61.5113 81.3666C61.6173 81.1933 61.7517 81.0589 61.9146 80.9632C62.0801 80.865 62.2766 80.8158 62.5041 80.8158C62.5558 80.8158 62.6153 80.8223 62.6825 80.8352C62.7498 80.8456 62.7963 80.8572 62.8222 80.8701ZM65.1492 85.1674C64.857 85.1674 64.592 85.1183 64.3541 85.02C64.1188 84.9192 63.9159 84.7783 63.7452 84.5973C63.5772 84.4163 63.4479 84.2017 63.3574 83.9535C63.2669 83.7052 63.2216 83.4338 63.2216 83.139V82.9761C63.2216 82.6348 63.2721 82.331 63.3729 82.0647C63.4737 81.7958 63.6108 81.5682 63.784 81.3821C63.9572 81.1959 64.1537 81.055 64.3735 80.9593C64.5933 80.8637 64.8208 80.8158 65.0561 80.8158C65.3561 80.8158 65.6146 80.8675 65.8318 80.971C66.0516 81.0744 66.2313 81.2192 66.3709 81.4053C66.5105 81.5889 66.614 81.8061 66.6812 82.0569C66.7484 82.3051 66.782 82.5766 66.782 82.8714V83.1933H63.6483V82.6077H66.0645V82.5534C66.0542 82.3672 66.0154 82.1862 65.9482 82.0104C65.8835 81.8346 65.7801 81.6898 65.6379 81.576C65.4957 81.4622 65.3018 81.4053 65.0561 81.4053C64.8932 81.4053 64.7433 81.4403 64.6062 81.5101C64.4692 81.5773 64.3515 81.6781 64.2533 81.8126C64.155 81.947 64.0788 82.1112 64.0245 82.3051C63.9702 82.4991 63.943 82.7227 63.943 82.9761V83.139C63.943 83.3381 63.9702 83.5255 64.0245 83.7014C64.0814 83.8746 64.1628 84.0272 64.2688 84.159C64.3774 84.2909 64.508 84.3943 64.6605 84.4693C64.8157 84.5443 64.9915 84.5818 65.188 84.5818C65.4414 84.5818 65.656 84.5301 65.8318 84.4266C66.0076 84.3232 66.1615 84.1849 66.2933 84.0116L66.7277 84.3568C66.6372 84.4939 66.5222 84.6244 66.3825 84.7485C66.2429 84.8727 66.071 84.9735 65.8667 85.0511C65.665 85.1286 65.4259 85.1674 65.1492 85.1674ZM70.2648 84.2754V79.1326H70.9862V85.0898H70.3269L70.2648 84.2754ZM67.4414 83.0382V82.9567C67.4414 82.6361 67.4801 82.3452 67.5577 82.0841C67.6379 81.8203 67.7503 81.5941 67.8951 81.4053C68.0425 81.2166 68.217 81.0718 68.4187 80.971C68.623 80.8675 68.8505 80.8158 69.1013 80.8158C69.365 80.8158 69.5952 80.8624 69.7917 80.9555C69.9908 81.0459 70.1588 81.1791 70.2959 81.3549C70.4355 81.5282 70.5454 81.7376 70.6255 81.9832C70.7057 82.2289 70.7613 82.5068 70.7923 82.8171V83.1739C70.7639 83.4816 70.7083 83.7583 70.6255 84.0039C70.5454 84.2495 70.4355 84.459 70.2959 84.6322C70.1588 84.8054 69.9908 84.9386 69.7917 85.0317C69.5926 85.1222 69.3599 85.1674 69.0936 85.1674C68.8479 85.1674 68.623 85.1144 68.4187 85.0084C68.217 84.9024 68.0425 84.7537 67.8951 84.5624C67.7503 84.371 67.6379 84.1461 67.5577 83.8875C67.4801 83.6264 67.4414 83.3433 67.4414 83.0382ZM68.1627 82.9567V83.0382C68.1627 83.2476 68.1834 83.4441 68.2248 83.6277C68.2687 83.8113 68.336 83.9729 68.4265 84.1125C68.517 84.2521 68.632 84.362 68.7716 84.4421C68.9113 84.5197 69.078 84.5585 69.272 84.5585C69.5098 84.5585 69.7051 84.5081 69.8576 84.4072C70.0127 84.3064 70.1369 84.1732 70.2299 84.0078C70.323 83.8423 70.3954 83.6626 70.4471 83.4687V82.534C70.4161 82.3918 70.3708 82.2547 70.3114 82.1229C70.2545 81.9884 70.1795 81.8695 70.0864 81.766C69.9959 81.66 69.8835 81.576 69.749 81.5139C69.6171 81.4519 69.4607 81.4209 69.2797 81.4209C69.0832 81.4209 68.9139 81.4622 68.7716 81.545C68.632 81.6251 68.517 81.7363 68.4265 81.8785C68.336 82.0181 68.2687 82.181 68.2248 82.3672C68.1834 82.5508 68.1627 82.7473 68.1627 82.9567ZM73.8446 85.1674C73.5524 85.1674 73.2874 85.1183 73.0495 85.02C72.8143 84.9192 72.6113 84.7783 72.4406 84.5973C72.2726 84.4163 72.1433 84.2017 72.0528 83.9535C71.9623 83.7052 71.917 83.4338 71.917 83.139V82.9761C71.917 82.6348 71.9675 82.331 72.0683 82.0647C72.1691 81.7958 72.3062 81.5682 72.4794 81.3821C72.6526 81.1959 72.8492 81.055 73.0689 80.9593C73.2887 80.8637 73.5162 80.8158 73.7515 80.8158C74.0515 80.8158 74.31 80.8675 74.5272 80.971C74.747 81.0744 74.9267 81.2192 75.0663 81.4053C75.2059 81.5889 75.3094 81.8061 75.3766 82.0569C75.4438 82.3051 75.4774 82.5766 75.4774 82.8714V83.1933H72.3437V82.6077H74.7599V82.5534C74.7496 82.3672 74.7108 82.1862 74.6436 82.0104C74.5789 81.8346 74.4755 81.6898 74.3333 81.576C74.1911 81.4622 73.9972 81.4053 73.7515 81.4053C73.5886 81.4053 73.4387 81.4403 73.3016 81.5101C73.1646 81.5773 73.047 81.6781 72.9487 81.8126C72.8504 81.947 72.7742 82.1112 72.7199 82.3051C72.6656 82.4991 72.6384 82.7227 72.6384 82.9761V83.139C72.6384 83.3381 72.6656 83.5255 72.7199 83.7014C72.7768 83.8746 72.8582 84.0272 72.9642 84.159C73.0728 84.2909 73.2034 84.3943 73.3559 84.4693C73.5111 84.5443 73.6869 84.5818 73.8834 84.5818C74.1368 84.5818 74.3514 84.5301 74.5272 84.4266C74.703 84.3232 74.8569 84.1849 74.9887 84.0116L75.4231 84.3568C75.3326 84.4939 75.2176 84.6244 75.078 84.7485C74.9383 84.8727 74.7664 84.9735 74.5621 85.0511C74.3604 85.1286 74.1213 85.1674 73.8446 85.1674ZM77.0327 81.7893V85.0898H76.3152V80.8934H76.9939L77.0327 81.7893ZM76.862 82.8326L76.5634 82.821C76.566 82.534 76.6086 82.2689 76.6914 82.0259C76.7741 81.7803 76.8905 81.5669 77.0404 81.386C77.1904 81.205 77.3688 81.0653 77.5757 80.9671C77.7851 80.8662 78.0165 80.8158 78.2699 80.8158C78.4767 80.8158 78.6629 80.8443 78.8284 80.9012C78.9939 80.9555 79.1348 81.0434 79.2511 81.1649C79.3701 81.2864 79.4606 81.4441 79.5226 81.6381C79.5847 81.8294 79.6157 82.0634 79.6157 82.34V85.0898H78.8943V82.3323C78.8943 82.1125 78.862 81.9367 78.7974 81.8048C78.7327 81.6704 78.6383 81.5734 78.5142 81.5139C78.3901 81.4519 78.2376 81.4209 78.0566 81.4209C77.8782 81.4209 77.7153 81.4584 77.5679 81.5333C77.4231 81.6083 77.2977 81.7117 77.1917 81.8436C77.0883 81.9755 77.0068 82.1267 76.9474 82.2974C76.8905 82.4654 76.862 82.6439 76.862 82.8326ZM82.4625 80.8934V81.4441H80.1936V80.8934H82.4625ZM80.9615 79.8734H81.679V84.0504C81.679 84.1926 81.701 84.2999 81.745 84.3723C81.7889 84.4447 81.8458 84.4926 81.9156 84.5158C81.9854 84.5391 82.0604 84.5507 82.1406 84.5507C82.2 84.5507 82.2621 84.5456 82.3267 84.5352C82.3939 84.5223 82.4444 84.512 82.478 84.5042L82.4819 85.0898C82.425 85.1079 82.35 85.1247 82.2569 85.1403C82.1664 85.1584 82.0565 85.1674 81.9272 85.1674C81.7514 85.1674 81.5898 85.1325 81.4424 85.0627C81.2951 84.9929 81.1774 84.8765 81.0895 84.7136C81.0042 84.5482 80.9615 84.3258 80.9615 84.0465V79.8734ZM84.0836 80.8934V85.0898H83.3623V80.8934H84.0836ZM83.308 79.7803C83.308 79.6639 83.3429 79.5657 83.4127 79.4855C83.4851 79.4054 83.5911 79.3653 83.7307 79.3653C83.8677 79.3653 83.9725 79.4054 84.0449 79.4855C84.1198 79.5657 84.1573 79.6639 84.1573 79.7803C84.1573 79.8915 84.1198 79.9871 84.0449 80.0673C83.9725 80.1449 83.8677 80.1836 83.7307 80.1836C83.5911 80.1836 83.4851 80.1449 83.4127 80.0673C83.3429 79.9871 83.308 79.8915 83.308 79.7803ZM87.71 84.3723V82.2121C87.71 82.0466 87.6763 81.9031 87.6091 81.7816C87.5445 81.6574 87.4462 81.5618 87.3144 81.4946C87.1825 81.4273 87.0196 81.3937 86.8257 81.3937C86.6447 81.3937 86.4857 81.4247 86.3486 81.4868C86.2142 81.5488 86.1082 81.6303 86.0306 81.7311C85.9556 81.832 85.9181 81.9406 85.9181 82.0569H85.2006C85.2006 81.907 85.2394 81.7583 85.317 81.6109C85.3945 81.4635 85.5057 81.3304 85.6505 81.2114C85.7979 81.0899 85.9737 80.9942 86.178 80.9244C86.3848 80.852 86.615 80.8158 86.8683 80.8158C87.1734 80.8158 87.4423 80.8675 87.6751 80.971C87.9103 81.0744 88.0939 81.2308 88.2258 81.4403C88.3602 81.6471 88.4275 81.907 88.4275 82.2198V84.1745C88.4275 84.3142 88.4391 84.4628 88.4624 84.6206C88.4882 84.7783 88.5257 84.914 88.5748 85.0278V85.0898H87.8263C87.7901 85.0071 87.7617 84.8972 87.741 84.7602C87.7203 84.6206 87.71 84.4913 87.71 84.3723ZM87.8341 82.5456L87.8418 83.0498H87.1166C86.9123 83.0498 86.73 83.0666 86.5697 83.1002C86.4094 83.1312 86.2749 83.1791 86.1663 83.2437C86.0578 83.3084 85.975 83.3898 85.9181 83.4881C85.8612 83.5837 85.8328 83.6962 85.8328 83.8255C85.8328 83.9573 85.8625 84.0776 85.922 84.1862C85.9815 84.2948 86.0707 84.3814 86.1896 84.446C86.3111 84.5081 86.4598 84.5391 86.6356 84.5391C86.8554 84.5391 87.0493 84.4926 87.2174 84.3995C87.3855 84.3064 87.5186 84.1926 87.6169 84.0582C87.7177 83.9237 87.772 83.7932 87.7798 83.6665L88.0862 84.0116C88.0681 84.1202 88.0189 84.2405 87.9388 84.3723C87.8586 84.5042 87.7513 84.6309 87.6169 84.7524C87.485 84.8714 87.3273 84.9709 87.1437 85.0511C86.9627 85.1286 86.7585 85.1674 86.5309 85.1674C86.2465 85.1674 85.997 85.1118 85.7824 85.0006C85.5704 84.8895 85.4049 84.7408 85.2859 84.5546C85.1696 84.3659 85.1114 84.1551 85.1114 83.9224C85.1114 83.6975 85.1554 83.4997 85.2433 83.329C85.3312 83.1558 85.4579 83.0123 85.6234 82.8985C85.7888 82.7822 85.9879 82.6943 86.2206 82.6348C86.4534 82.5753 86.7132 82.5456 87.0002 82.5456H87.8341ZM90.3357 79.1326V85.0898H89.6143V79.1326H90.3357Z" fill="#616161"/>
<path d="M93.4112 82.3439L94.1908 81.2735L93.0195 80.9244L93.2018 80.3427L94.3731 80.7732L94.3382 79.439H94.9277L94.8889 80.7964L96.0447 80.3659L96.2231 80.9593L95.0324 81.3123L95.7965 82.3633L95.3155 82.724L94.598 81.607L93.896 82.6969L93.4112 82.3439Z" fill="#FF0000"/>
<rect x="23.6501" y="89.3594" width="150.91" height="21.06" rx="10.53" fill="#FAFAFA"/>
<rect x="27.05" y="92.7598" width="110.64" height="14.25" rx="7.125" fill="#FAFAFA"/>
<path d="M159.812 98.7559L162.65 101.593L165.487 98.7559H159.812Z" fill="black" fill-opacity="0.54"/>
<g clip-path="url(#clip3_117_6322)">
<rect x="24.1501" y="90.0195" width="149.92" height="19.9" rx="9.95" stroke="black" stroke-opacity="0.23"/>
</g>
<rect width="169.07" height="19.68" transform="translate(14.5701 120.061)" fill="#FAFAFA"/>
<path d="M92.3105 129.191V129.502C92.3105 129.928 92.2549 130.311 92.1437 130.65C92.0325 130.988 91.8735 131.277 91.6666 131.514C91.4624 131.752 91.2167 131.935 90.9297 132.061C90.6427 132.185 90.3247 132.247 89.9757 132.247C89.6292 132.247 89.3124 132.185 89.0254 132.061C88.741 131.935 88.4941 131.752 88.2847 131.514C88.0752 131.277 87.9123 130.988 87.796 130.65C87.6822 130.311 87.6253 129.928 87.6253 129.502V129.191C87.6253 128.765 87.6822 128.383 87.796 128.047C87.9097 127.708 88.0701 127.42 88.2769 127.182C88.4863 126.942 88.7333 126.76 89.0177 126.635C89.3047 126.509 89.6214 126.445 89.9679 126.445C90.317 126.445 90.635 126.509 90.922 126.635C91.209 126.76 91.4559 126.942 91.6628 127.182C91.8696 127.42 92.0286 127.708 92.1398 128.047C92.2536 128.383 92.3105 128.765 92.3105 129.191ZM91.337 129.502V129.184C91.337 128.868 91.3059 128.59 91.2439 128.35C91.1844 128.107 91.0952 127.904 90.9763 127.741C90.8599 127.575 90.7164 127.451 90.5458 127.368C90.3751 127.283 90.1825 127.24 89.9679 127.24C89.7533 127.24 89.562 127.283 89.3939 127.368C89.2258 127.451 89.0823 127.575 88.9634 127.741C88.847 127.904 88.7578 128.107 88.6958 128.35C88.6337 128.59 88.6027 128.868 88.6027 129.184V129.502C88.6027 129.817 88.6337 130.096 88.6958 130.339C88.7578 130.582 88.8483 130.788 88.9673 130.956C89.0888 131.121 89.2336 131.247 89.4016 131.332C89.5697 131.415 89.761 131.456 89.9757 131.456C90.1928 131.456 90.3855 131.415 90.5535 131.332C90.7216 131.247 90.8638 131.121 90.9802 130.956C91.0965 130.788 91.1844 130.582 91.2439 130.339C91.3059 130.096 91.337 129.817 91.337 129.502ZM95.7157 131.181V127.973H96.6543V132.17H95.77L95.7157 131.181ZM95.8476 130.308L96.1617 130.301C96.1617 130.582 96.1307 130.842 96.0686 131.08C96.0066 131.315 95.9109 131.521 95.7816 131.697C95.6524 131.87 95.4869 132.006 95.2852 132.104C95.0835 132.2 94.8418 132.247 94.5599 132.247C94.3557 132.247 94.1682 132.218 93.9976 132.158C93.8269 132.099 93.6795 132.007 93.5554 131.883C93.4339 131.759 93.3395 131.597 93.2723 131.398C93.2051 131.199 93.1715 130.961 93.1715 130.684V127.973H94.1062V130.692C94.1062 130.845 94.1243 130.973 94.1605 131.076C94.1967 131.177 94.2458 131.258 94.3078 131.321C94.3699 131.383 94.4423 131.427 94.525 131.452C94.6078 131.478 94.6957 131.491 94.7888 131.491C95.0551 131.491 95.2645 131.439 95.4171 131.336C95.5722 131.23 95.6821 131.088 95.7467 130.909C95.814 130.731 95.8476 130.531 95.8476 130.308ZM99.5359 127.973V128.656H97.1701V127.973H99.5359ZM97.8527 126.946H98.7874V131.01C98.7874 131.14 98.8055 131.239 98.8417 131.309C98.8805 131.376 98.9335 131.421 99.0007 131.445C99.068 131.468 99.1468 131.48 99.2373 131.48C99.302 131.48 99.364 131.476 99.4235 131.468C99.4829 131.46 99.5308 131.452 99.567 131.445L99.5709 132.158C99.4933 132.182 99.4028 132.202 99.2994 132.22C99.1985 132.238 99.0822 132.247 98.9503 132.247C98.7357 132.247 98.5457 132.21 98.3802 132.135C98.2147 132.057 98.0854 131.932 97.9923 131.759C97.8993 131.586 97.8527 131.355 97.8527 131.068V126.946ZM101.196 128.78V133.783H100.261V127.973H101.122L101.196 128.78ZM103.93 130.033V130.114C103.93 130.419 103.894 130.703 103.822 130.964C103.752 131.222 103.647 131.449 103.507 131.642C103.37 131.834 103.201 131.982 102.999 132.088C102.798 132.194 102.565 132.247 102.301 132.247C102.04 132.247 101.811 132.2 101.615 132.104C101.421 132.006 101.257 131.867 101.122 131.689C100.988 131.511 100.879 131.301 100.796 131.061C100.716 130.818 100.659 130.551 100.626 130.262V129.948C100.659 129.64 100.716 129.361 100.796 129.11C100.879 128.859 100.988 128.643 101.122 128.462C101.257 128.281 101.421 128.142 101.615 128.043C101.809 127.945 102.035 127.896 102.294 127.896C102.557 127.896 102.791 127.948 102.995 128.051C103.2 128.152 103.372 128.297 103.511 128.485C103.651 128.672 103.756 128.897 103.825 129.16C103.895 129.421 103.93 129.712 103.93 130.033ZM102.995 130.114V130.033C102.995 129.839 102.977 129.659 102.941 129.494C102.905 129.326 102.848 129.178 102.771 129.052C102.693 128.925 102.593 128.827 102.472 128.757C102.353 128.685 102.209 128.648 102.041 128.648C101.876 128.648 101.734 128.677 101.615 128.734C101.496 128.788 101.396 128.864 101.316 128.962C101.236 129.061 101.174 129.176 101.13 129.308C101.086 129.437 101.055 129.578 101.037 129.73V130.483C101.068 130.669 101.121 130.84 101.196 130.995C101.271 131.15 101.377 131.274 101.514 131.367C101.654 131.458 101.832 131.503 102.049 131.503C102.217 131.503 102.361 131.467 102.48 131.394C102.599 131.322 102.696 131.222 102.771 131.096C102.848 130.966 102.905 130.818 102.941 130.65C102.977 130.482 102.995 130.303 102.995 130.114ZM107.25 131.181V127.973H108.189V132.17H107.304L107.25 131.181ZM107.382 130.308L107.696 130.301C107.696 130.582 107.665 130.842 107.603 131.08C107.541 131.315 107.445 131.521 107.316 131.697C107.187 131.87 107.021 132.006 106.82 132.104C106.618 132.2 106.376 132.247 106.094 132.247C105.89 132.247 105.703 132.218 105.532 132.158C105.361 132.099 105.214 132.007 105.09 131.883C104.968 131.759 104.874 131.597 104.807 131.398C104.739 131.199 104.706 130.961 104.706 130.684V127.973H105.641V130.692C105.641 130.845 105.659 130.973 105.695 131.076C105.731 131.177 105.78 131.258 105.842 131.321C105.904 131.383 105.977 131.427 106.059 131.452C106.142 131.478 106.23 131.491 106.323 131.491C106.589 131.491 106.799 131.439 106.951 131.336C107.107 131.23 107.217 131.088 107.281 130.909C107.348 130.731 107.382 130.531 107.382 130.308ZM111.07 127.973V128.656H108.705V127.973H111.07ZM109.387 126.946H110.322V131.01C110.322 131.14 110.34 131.239 110.376 131.309C110.415 131.376 110.468 131.421 110.535 131.445C110.602 131.468 110.681 131.48 110.772 131.48C110.836 131.48 110.898 131.476 110.958 131.468C111.017 131.46 111.065 131.452 111.101 131.445L111.105 132.158C111.028 132.182 110.937 132.202 110.834 132.22C110.733 132.238 110.617 132.247 110.485 132.247C110.27 132.247 110.08 132.21 109.915 132.135C109.749 132.057 109.62 131.932 109.527 131.759C109.434 131.586 109.387 131.355 109.387 131.068V126.946Z" fill="#616161"/>
<path d="M141.415 156.342V156.951H137.591V156.342H141.415ZM141.291 151.847L137.769 156.951H137.308V156.393L140.826 151.304H141.291V151.847ZM140.973 151.304V151.917H137.358V151.304H140.973ZM144.754 156.234V154.073C144.754 153.908 144.721 153.764 144.654 153.643C144.589 153.519 144.491 153.423 144.359 153.356C144.227 153.289 144.064 153.255 143.87 153.255C143.689 153.255 143.53 153.286 143.393 153.348C143.259 153.41 143.153 153.492 143.075 153.592C143 153.693 142.963 153.802 142.963 153.918H142.245C142.245 153.768 142.284 153.62 142.361 153.472C142.439 153.325 142.55 153.192 142.695 153.073C142.842 152.951 143.018 152.856 143.222 152.786C143.429 152.713 143.659 152.677 143.913 152.677C144.218 152.677 144.487 152.729 144.72 152.832C144.955 152.936 145.138 153.092 145.27 153.302C145.405 153.508 145.472 153.768 145.472 154.081V156.036C145.472 156.175 145.484 156.324 145.507 156.482C145.533 156.64 145.57 156.775 145.619 156.889V156.951H144.871C144.835 156.868 144.806 156.759 144.785 156.622C144.765 156.482 144.754 156.353 144.754 156.234ZM144.879 154.407L144.886 154.911H144.161C143.957 154.911 143.774 154.928 143.614 154.962C143.454 154.993 143.319 155.04 143.211 155.105C143.102 155.17 143.019 155.251 142.963 155.349C142.906 155.445 142.877 155.558 142.877 155.687C142.877 155.819 142.907 155.939 142.966 156.048C143.026 156.156 143.115 156.243 143.234 156.307C143.356 156.369 143.504 156.4 143.68 156.4C143.9 156.4 144.094 156.354 144.262 156.261C144.43 156.168 144.563 156.054 144.661 155.92C144.762 155.785 144.816 155.654 144.824 155.528L145.131 155.873C145.113 155.982 145.063 156.102 144.983 156.234C144.903 156.366 144.796 156.492 144.661 156.614C144.529 156.733 144.372 156.832 144.188 156.912C144.007 156.99 143.803 157.029 143.575 157.029C143.291 157.029 143.041 156.973 142.827 156.862C142.615 156.751 142.449 156.602 142.33 156.416C142.214 156.227 142.156 156.016 142.156 155.784C142.156 155.559 142.2 155.361 142.288 155.19C142.376 155.017 142.502 154.874 142.668 154.76C142.833 154.644 143.032 154.556 143.265 154.496C143.498 154.437 143.758 154.407 144.045 154.407H144.879ZM147.318 153.561V158.565H146.597V152.755H147.256L147.318 153.561ZM150.145 154.818V154.899C150.145 155.205 150.109 155.488 150.037 155.749C149.964 156.007 149.858 156.232 149.719 156.424C149.582 156.615 149.412 156.764 149.211 156.87C149.009 156.976 148.778 157.029 148.516 157.029C148.25 157.029 148.015 156.985 147.811 156.897C147.606 156.809 147.433 156.681 147.291 156.513C147.149 156.345 147.035 156.143 146.95 155.908C146.867 155.673 146.81 155.408 146.779 155.113V154.678C146.81 154.368 146.868 154.09 146.953 153.845C147.039 153.599 147.151 153.389 147.291 153.216C147.433 153.04 147.605 152.907 147.807 152.817C148.008 152.724 148.241 152.677 148.505 152.677C148.769 152.677 149.003 152.729 149.207 152.832C149.411 152.933 149.583 153.078 149.723 153.267C149.862 153.455 149.967 153.682 150.037 153.945C150.109 154.207 150.145 154.497 150.145 154.818ZM149.424 154.899V154.818C149.424 154.609 149.402 154.412 149.358 154.229C149.314 154.042 149.246 153.879 149.153 153.74C149.062 153.598 148.946 153.486 148.803 153.406C148.661 153.324 148.492 153.282 148.295 153.282C148.114 153.282 147.957 153.313 147.822 153.375C147.69 153.437 147.578 153.521 147.485 153.627C147.392 153.731 147.315 153.85 147.256 153.984C147.199 154.116 147.156 154.253 147.128 154.395V155.4C147.18 155.581 147.252 155.751 147.345 155.912C147.438 156.069 147.562 156.197 147.718 156.296C147.873 156.391 148.068 156.439 148.303 156.439C148.497 156.439 148.664 156.399 148.803 156.319C148.946 156.236 149.062 156.124 149.153 155.982C149.246 155.839 149.314 155.676 149.358 155.493C149.402 155.307 149.424 155.109 149.424 154.899ZM151.84 152.755V156.951H151.119V152.755H151.84ZM151.065 151.642C151.065 151.525 151.1 151.427 151.169 151.347C151.242 151.267 151.348 151.227 151.487 151.227C151.624 151.227 151.729 151.267 151.802 151.347C151.876 151.427 151.914 151.525 151.914 151.642C151.914 151.753 151.876 151.848 151.802 151.929C151.729 152.006 151.624 152.045 151.487 152.045C151.348 152.045 151.242 152.006 151.169 151.929C151.1 151.848 151.065 151.753 151.065 151.642ZM154.734 157.029C154.441 157.029 154.176 156.98 153.939 156.881C153.703 156.781 153.5 156.64 153.33 156.459C153.162 156.278 153.032 156.063 152.942 155.815C152.851 155.567 152.806 155.295 152.806 155V154.837C152.806 154.496 152.856 154.192 152.957 153.926C153.058 153.657 153.195 153.43 153.368 153.243C153.542 153.057 153.738 152.916 153.958 152.821C154.178 152.725 154.405 152.677 154.641 152.677C154.94 152.677 155.199 152.729 155.416 152.832C155.636 152.936 155.816 153.081 155.955 153.267C156.095 153.45 156.198 153.667 156.266 153.918C156.333 154.166 156.366 154.438 156.366 154.733V155.055H153.233V154.469H155.649V154.415C155.639 154.229 155.6 154.048 155.533 153.872C155.468 153.696 155.364 153.551 155.222 153.437C155.08 153.324 154.886 153.267 154.641 153.267C154.478 153.267 154.328 153.302 154.191 153.371C154.054 153.439 153.936 153.539 153.838 153.674C153.739 153.808 153.663 153.973 153.609 154.166C153.555 154.36 153.527 154.584 153.527 154.837V155C153.527 155.199 153.555 155.387 153.609 155.563C153.666 155.736 153.747 155.888 153.853 156.02C153.962 156.152 154.092 156.256 154.245 156.331C154.4 156.406 154.576 156.443 154.772 156.443C155.026 156.443 155.24 156.391 155.416 156.288C155.592 156.185 155.746 156.046 155.878 155.873L156.312 156.218C156.222 156.355 156.107 156.486 155.967 156.61C155.827 156.734 155.655 156.835 155.451 156.912C155.249 156.99 155.01 157.029 154.734 157.029ZM157.922 153.414V156.951H157.204V152.755H157.902L157.922 153.414ZM159.233 152.731L159.229 153.399C159.169 153.386 159.112 153.378 159.058 153.375C159.006 153.37 158.947 153.368 158.88 153.368C158.714 153.368 158.568 153.393 158.441 153.445C158.315 153.497 158.207 153.569 158.119 153.662C158.032 153.755 157.962 153.867 157.91 153.996C157.861 154.123 157.829 154.262 157.813 154.415L157.611 154.531C157.611 154.278 157.636 154.04 157.685 153.817C157.737 153.595 157.816 153.399 157.922 153.228C158.028 153.055 158.162 152.92 158.325 152.825C158.49 152.726 158.687 152.677 158.915 152.677C158.966 152.677 159.026 152.684 159.093 152.697C159.16 152.707 159.207 152.719 159.233 152.731ZM164.348 151.304V156.951H163.596L160.753 152.596V156.951H160.004V151.304H160.753L163.607 155.671V151.304H164.348ZM169.099 156.342V156.951H166.276V156.342H169.099ZM166.423 151.304V156.951H165.675V151.304H166.423ZM172.124 151.805L170.255 156.951H169.491L171.643 151.304H172.136L172.124 151.805ZM173.691 156.951L171.818 151.805L171.806 151.304H172.299L174.459 156.951H173.691ZM173.594 154.861V155.473H170.422V154.861H173.594Z" fill="#616161"/>
</g>
<rect x="14.5" y="12.5" width="169.21" height="156.62" rx="11.5" stroke="#9E9E9E"/>
</g>
<defs>
<filter id="filter0_d_117_6322" x="0" y="0" width="198.21" height="185.619" filterUnits="userSpaceOnUse" color-interpolation-filters="sRGB">
<feFlood flood-opacity="0" result="BackgroundImageFix"/>
<feColorMatrix in="SourceAlpha" type="matrix" values="0 0 0 0 0 0 0 0 0 0 0 0 0 0 0 0 0 0 127 0" result="hardAlpha"/>
<feOffset dy="2"/>
<feGaussianBlur stdDeviation="7"/>
<feComposite in2="hardAlpha" operator="out"/>
<feColorMatrix type="matrix" values="0 0 0 0 0.12549 0 0 0 0 0.156863 0 0 0 0 0.176471 0 0 0 0.08 0"/>
<feBlend mode="normal" in2="BackgroundImageFix" result="effect1_dropShadow_117_6322"/>
<feBlend mode="normal" in="SourceGraphic" in2="effect1_dropShadow_117_6322" result="shape"/>
</filter>
<clipPath id="clip0_117_6322">
<rect x="14" y="12" width="170.21" height="157.62" rx="12" fill="white"/>
</clipPath>
<clipPath id="clip1_117_6322">
<rect width="24.96" height="24.97" fill="white" transform="translate(17.4102 15.4004)"/>
</clipPath>
<clipPath id="clip2_117_6322">
<rect width="14.96" height="14.96" fill="white" transform="translate(22.4102 20.4004)"/>
</clipPath>
<clipPath id="clip3_117_6322">
<rect x="23.6501" y="86.5195" width="150.91" height="23.9" rx="11.95" fill="white"/>
</clipPath>
</defs>
</svg>
