<svg width="65" height="13" viewBox="0 0 65 13" fill="none" xmlns="http://www.w3.org/2000/svg">
<path d="M1.27029 2.96143C1.27029 2.10371 1.52543 1.41429 2.03571 0.893143C2.546 0.372 3.23 0.111429 4.08771 0.111429H4.99971V1.98429H4.42971C3.78914 1.98429 3.46886 2.32086 3.46886 2.994V3.53143H5.19514V5.40429H3.46886V12H1.27029V5.40429H0.0814286V3.53143H1.27029V2.96143ZM5.93156 0.111429H8.13013V12H5.93156V0.111429ZM13.6159 12.2117C12.7582 12.2117 11.9873 12.0163 11.3033 11.6254C10.6193 11.2237 10.0819 10.6863 9.69102 10.0131C9.30016 9.32914 9.10473 8.58543 9.10473 7.782C9.10473 6.97857 9.30016 6.23486 9.69102 5.55086C10.0819 4.86686 10.6193 4.32943 11.3033 3.93857C11.9873 3.53686 12.7582 3.336 13.6159 3.336C14.4736 3.336 15.2444 3.53686 15.9284 3.93857C16.6124 4.32943 17.1499 4.86686 17.5407 5.55086C17.9316 6.23486 18.127 6.97857 18.127 7.782C18.127 8.58543 17.9316 9.32914 17.5407 10.0131C17.1499 10.6863 16.6124 11.2237 15.9284 11.6254C15.2444 12.0163 14.4736 12.2117 13.6159 12.2117ZM11.3033 7.782C11.3033 8.22714 11.3956 8.63429 11.5802 9.00343C11.7756 9.37257 12.047 9.66571 12.3944 9.88286C12.7527 10.1 13.1599 10.2086 13.6159 10.2086C14.0719 10.2086 14.4736 10.1 14.821 9.88286C15.1793 9.66571 15.4507 9.37257 15.6353 9.00343C15.8307 8.63429 15.9284 8.22714 15.9284 7.782C15.9284 7.33686 15.8307 6.92971 15.6353 6.56057C15.4399 6.19143 15.1684 5.89829 14.821 5.68114C14.4736 5.45314 14.0719 5.33914 13.6159 5.33914C13.1599 5.33914 12.7582 5.45314 12.4107 5.68114C12.0633 5.89829 11.7919 6.19143 11.5964 6.56057C11.401 6.92971 11.3033 7.33686 11.3033 7.782ZM17.9189 3.53143H20.492L21.5832 8.33571C21.7026 8.82429 21.7894 9.25314 21.8437 9.62229C21.9197 9.15543 22.012 8.72114 22.1206 8.31943L23.3583 3.53143H25.8826L27.2017 8.31943C27.3103 8.72114 27.4026 9.15543 27.4786 9.62229C27.5329 9.25314 27.6197 8.82429 27.7392 8.33571L28.9117 3.53143H31.3057L28.6674 12H26.2897L24.9054 7.17943C24.7752 6.78857 24.6774 6.36514 24.6123 5.90914C24.5363 6.40857 24.4494 6.832 24.3517 7.17943L23.0814 12H20.5572L17.9189 3.53143ZM31.7438 3.53143H33.9424V12H31.7438V3.53143ZM31.5158 1.52829C31.5158 1.17 31.6406 0.866 31.8904 0.616285C32.1509 0.366571 32.4658 0.241714 32.8349 0.241714C33.2149 0.241714 33.5298 0.366571 33.7795 0.616285C34.0292 0.866 34.1541 1.17 34.1541 1.52829C34.1541 1.89743 34.0292 2.20686 33.7795 2.45657C33.5298 2.70629 33.2149 2.83114 32.8349 2.83114C32.4658 2.83114 32.1509 2.70629 31.8904 2.45657C31.6406 2.196 31.5158 1.88657 31.5158 1.52829ZM38.1415 12.2117C36.7192 12.2117 35.5467 11.7177 34.6238 10.7297L36.1058 9.378C36.7247 10.0729 37.387 10.4203 38.0927 10.4203C38.4618 10.4203 38.7495 10.3389 38.9558 10.176C39.1621 10.0131 39.2652 9.80143 39.2652 9.54086C39.2652 9.302 39.1621 9.11743 38.9558 8.98714C38.7604 8.846 38.3478 8.69943 37.7181 8.54743C36.6867 8.29771 35.9918 7.95571 35.6335 7.52143C35.2861 7.08714 35.1124 6.54971 35.1124 5.90914C35.1124 5.14914 35.3947 4.53029 35.9592 4.05257C36.5238 3.564 37.2947 3.31971 38.2718 3.31971C38.9775 3.31971 39.5692 3.42829 40.047 3.64543C40.5355 3.86257 40.9915 4.24257 41.415 4.78543L39.819 6.00686C39.439 5.39886 38.9395 5.09486 38.3207 5.09486C38.0058 5.09486 37.7507 5.16 37.5552 5.29029C37.3598 5.40971 37.2621 5.59429 37.2621 5.844C37.2621 6.01771 37.3327 6.16971 37.4738 6.3C37.6258 6.41943 37.9352 6.53886 38.4021 6.65829C39.5638 6.96229 40.3564 7.33686 40.7798 7.782C41.2141 8.22714 41.4312 8.79171 41.4312 9.47571C41.4312 9.986 41.2847 10.4529 40.9915 10.8763C40.7092 11.2889 40.3184 11.6146 39.819 11.8534C39.3195 12.0923 38.7604 12.2117 38.1415 12.2117ZM46.3433 12.2117C45.4856 12.2117 44.7256 12.0163 44.0633 11.6254C43.401 11.2237 42.8853 10.6863 42.5161 10.0131C42.147 9.34 41.9624 8.59629 41.9624 7.782C41.9624 6.97857 42.1524 6.23486 42.5324 5.55086C42.9124 4.86686 43.4336 4.324 44.0959 3.92229C44.769 3.52057 45.5181 3.31971 46.3433 3.31971C47.1684 3.31971 47.9067 3.52057 48.5581 3.92229C49.2204 4.324 49.7307 4.86686 50.089 5.55086C50.4581 6.224 50.6427 6.96771 50.6427 7.782C50.6427 8.05343 50.621 8.314 50.5776 8.56371H44.2424C44.3727 9.074 44.617 9.48657 44.9753 9.80143C45.3444 10.1054 45.8004 10.2574 46.3433 10.2574C46.7993 10.2574 47.2064 10.1543 47.5647 9.948C47.923 9.73086 48.2053 9.454 48.4116 9.11743L50.1216 10.404C49.7741 10.9469 49.2639 11.3866 48.5907 11.7231C47.9176 12.0489 47.1684 12.2117 46.3433 12.2117ZM48.4279 6.91886C48.2976 6.43029 48.0424 6.02314 47.6624 5.69743C47.2824 5.37171 46.8319 5.20886 46.3107 5.20886C45.8004 5.20886 45.3553 5.36629 44.9753 5.68114C44.6061 5.996 44.3619 6.40857 44.2424 6.91886H48.4279Z" fill="black"/>
<path d="M55.3048 0.6H57.2753L61.9168 12H59.4413L58.6596 9.834H53.9042L53.1225 12H50.647L55.3048 0.6ZM57.9105 7.86343L56.689 4.75286C56.5045 4.27514 56.3688 3.84086 56.2819 3.45C56.1408 3.99286 56.005 4.42714 55.8748 4.75286L54.6533 7.86343H57.9105ZM62.4264 0.6H64.7064V12H62.4264V0.6Z" fill="#645BC9"/>
</svg>
